<?xml version="1.0" encoding="utf-8"?>
<!-- Generator: Adobe Illustrator 16.0.4, SVG Export Plug-In . SVG Version: 6.00 Build 0)  -->
<!DOCTYPE svg PUBLIC "-//W3C//DTD SVG 1.1//EN" "http://www.w3.org/Graphics/SVG/1.1/DTD/svg11.dtd">
<svg version="1.1" xmlns="http://www.w3.org/2000/svg" xmlns:xlink="http://www.w3.org/1999/xlink" x="0px" y="0px"
	 width="142.524px" height="158.865px" viewBox="0 0 142.524 158.865" enable-background="new 0 0 142.524 158.865"
	 xml:space="preserve">
<g id="Layer_6">
	<path fill-rule="evenodd" clip-rule="evenodd" fill="#222222" stroke="#020202" stroke-width="0.5" stroke-miterlimit="10" d="
		M77.021,139.152c0.696-0.585,1.166-1.065,1.716-1.423c0.794-0.515,1.605-1.052,2.484-1.374c0.938-0.344,1.613,0.111,1.541,1.167
		c-0.1,1.467-0.271,2.933-0.508,4.384c-0.171,1.043,0.002,1.332,1.042,1.181c0.468-0.067,0.924-0.241,1.377-0.393
		c1.02-0.339,1.373-0.819,0.74-1.927c-0.433-0.757-0.686-1.761-0.625-2.627c0.159-2.271,2.718-3.527,4.796-2.409
		c0.329,0.177,0.587,0.758,0.61,1.168c0.042,0.746-0.201,1.509-0.16,2.256c0.025,0.458,0.3,1.24,0.561,1.283
		c0.7,0.116,1.518,0.059,2.158-0.225c0.314-0.14,0.487-0.941,0.458-1.429c-0.034-0.575-0.4-1.123-0.538-1.703
		c-0.149-0.626-0.077-1.356,0.688-1.413c1.45-0.107,2.913-0.03,4.321-0.03c0.069,0.229,0.115,0.306,0.11,0.379
		c-0.044,0.6-0.097,1.2-0.147,1.8c0.656-0.053,1.315-0.079,1.966-0.17c0.267-0.037,0.576-0.15,0.76-0.335
		c2.197-2.197,4.961-1.791,7.898-1.691c-5.479,3.096-11.011,5.709-16.063,9.126c0.03,0.125,0.062,0.249,0.093,0.374
		c1.715,0.246,3.427,0.541,5.15,0.694c0.333,0.03,0.808-0.43,1.058-0.777c0.604-0.841,1.072-1.78,1.674-2.623
		c1.042-1.458,2.605-1.92,4.293-2.016c0.343-0.02,0.875,0.174,1.006,0.43c0.132,0.256-0.044,0.769-0.236,1.072
		c-0.468,0.74-1.087,1.389-1.528,2.142c-0.554,0.945-0.091,1.734,1.01,1.835c0.396,0.036,0.804,0.037,1.198-0.009
		c1.06-0.125,1.416-0.659,1.284-1.729c-0.106-0.868-0.202-1.747-0.188-2.62c0.031-1.943,1.363-3.495,3.248-3.947
		c0.783-0.188,1.339,0.109,1.463,0.825c0.159,0.919,0.094,1.875,0.158,2.812c0.051,0.729,0.151,1.453,0.229,2.179
		c0.761-0.138,1.548-0.196,2.276-0.433c1.032-0.336,1.16-1.131,0.953-2.128c-0.671-3.22,0.947-5.841,4.024-6.769
		c0.97-0.292,1.355,0.124,1.299,0.926c-0.07,0.979-0.318,1.955-0.572,2.909c-0.25,0.938-0.604,1.848-0.938,2.852
		c2.088-0.222,3.254-1.13,3.711-2.901c0.603-2.335,1.975-3.762,4.406-4.143c1.678-0.263,2.282,0.413,1.653,2.031
		c-0.376,0.966-0.851,1.898-1.349,2.81c-0.415,0.76-0.213,1.094,0.564,1.422c1.091,0.462,2.215,0.959,3.135,1.684
		c1.051,0.827,0.868,1.373-0.366,1.825c-2.977,1.091-5.1,0.531-7.177-1.822c-0.241-0.273-0.837-0.562-1.079-0.446
		c-0.658,0.315-1.216,0.843-1.813,1.286c0.252,0.328,0.443,0.746,0.77,0.965c0.525,0.353,1.209,0.486,1.691,0.878
		c0.355,0.289,0.693,0.855,0.668,1.275c-0.02,0.319-0.575,0.734-0.975,0.88c-1.332,0.486-2.667,0.274-3.974-0.195
		c-1.306-0.469-1.153-1.666-1.323-2.969c-3.665,1.186-7.204,2.333-10.429,4.261c0.014,0.146,0.027,0.29,0.041,0.435
		c1.629,0.166,3.256,0.43,4.889,0.477c4.131,0.119,8.211-0.425,12.229-1.329c5.333-1.2,10.639-2.52,15.958-3.782
		c0.461-0.109,0.934-0.171,1.56-0.014c-0.548,0.405-1.062,0.871-1.651,1.2c-0.553,0.309-1.192,0.456-1.781,0.704
		c-1.193,0.501-1.262,0.745-0.525,1.836c0.916,1.355,1.841,2.705,2.761,4.057c-2.637,1.785-5.816,0.28-6.343-2.945
		c-0.234-1.439-0.467-1.635-1.853-1.285c-0.872,0.22-1.71,0.578-2.758,0.941c0.736,1.153,1.379,2.1,1.958,3.084
		c0.532,0.908,1.532,2.015,0.649,2.883c-0.52,0.511-1.944,0.322-2.895,0.125c-1.662-0.344-2.468-1.609-2.832-3.219
		c-0.446-1.977-0.476-1.978-2.506-1.519c-0.971,0.219-1.934,0.471-2.897,0.719c-0.105,0.027-0.192,0.13-0.45,0.313
		c0.635,0.751,1.29,1.389,1.772,2.138c0.407,0.632,0.614,1.394,0.91,2.098c-0.75,0.256-1.49,0.685-2.253,0.729
		c-1.493,0.09-2.738-1.146-3.178-2.909c-0.418-1.674-1.25-2.252-2.937-2.042c-0.791,0.098-1.595,0.132-2.369,0.303
		c-1.113,0.245-1.142,0.531-0.427,1.405c0.775,0.947,1.606,1.897,2.14,2.981c0.597,1.212,0.235,1.624-1.128,1.758
		c-2.86,0.281-4.946-1.229-5.618-4.066c-0.476-2.01-0.681-2.138-2.743-2.221c-1.312-0.052-2.619-0.237-3.931-0.344
		c-0.417-0.034-0.839-0.005-1.545-0.005c0.359,0.615,0.596,1.039,0.85,1.451c0.606,0.981,1.3,1.918,1.808,2.946
		c0.398,0.806,0.083,1.441-0.85,1.748c-1.265,0.417-2.536,0.239-3.332-0.917c-0.823-1.195-1.497-2.542-1.976-3.914
		c-0.644-1.843-0.582-1.917-2.572-1.917c-1.827-0.001-3.653,0-5.863,0c0.587,0.889,0.992,1.49,1.385,2.102
		c0.601,0.938,1.243,1.854,1.773,2.83c0.481,0.887,0.058,1.418-0.857,1.68c-1.797,0.514-3.435,0.036-4.377-1.596
		c-0.668-1.155-1.126-2.469-1.466-3.768c-0.287-1.101-0.824-1.498-1.923-1.502c-3.665-0.013-4.13,0.423-4.13,4.107
		c0,1.359-0.024,2.72,0.009,4.079c0.019,0.805-0.298,1.188-1.116,1.188c-4.36-0.008-8.72-0.012-13.08,0.005
		c-0.764,0.003-0.947-0.379-0.939-1.05c0.02-1.68,0.013-3.359,0.001-5.04c-0.01-1.514-0.442-2.104-1.925-2.438
		c-1.126-0.253-2.278-0.391-3.42-0.572c-0.77-0.123-1.197,0.205-1.361,0.975c-0.234,1.094-0.476,2.188-0.795,3.259
		c-0.653,2.187-2.063,3.081-4.124,2.696c-0.87-0.163-1.361-0.641-0.958-1.512c0.65-1.405,1.388-2.772,2.136-4.13
		c0.559-1.015,0.469-1.282-0.681-1.295c-1.477-0.016-2.956,0.039-4.432,0.094c-0.905,0.034-1.368,0.46-1.249,1.448
		c0.077,0.631,0.046,1.28,0.006,1.918c-0.151,2.404-2.754,4.252-4.966,3.58c-0.929-0.281-1.258-0.821-0.894-1.706
		c0.318-0.773,0.708-1.518,1.077-2.27c0.292-0.597,0.601-1.186,1.077-2.121c-1.189,0-2.082-0.048-2.967,0.012
		c-1.351,0.089-2.696,0.28-4.046,0.375c-1.036,0.073-1.376,0.644-1.57,1.603c-0.438,2.17-1.648,3.703-3.949,4.144
		c-0.273,0.053-0.577,0.156-0.824,0.087c-0.67-0.188-1.55-0.284-1.894-0.751c-0.24-0.326,0.182-1.241,0.458-1.822
		c0.306-0.642,0.803-1.189,1.178-1.802c0.524-0.854,0.188-1.455-0.722-1.532c-1.672-0.143-3.315-0.419-4.568,1.387
		c-1.345,1.941-3.482,2.175-5.974,1.736c0.651-1.219,1.238-2.317,1.868-3.496c-0.937-0.786-2.013-1.03-3.132-0.843
		c-0.35,0.059-0.699,0.585-0.902,0.973c-1.137,2.172-2.774,3.467-5.353,3.3c-0.896-0.058-1.285-0.364-0.892-1.28
		c0.534-1.244,1.083-2.483,1.575-3.744c0.151-0.388,0.139-0.839,0.201-1.261c-0.527,0.013-1.139-0.14-1.558,0.079
		c-0.539,0.281-0.93,0.853-1.372,1.312c-1.941,2.02-4.681,2.597-7.261,1.324c0.534-0.625,0.951-1.277,1.522-1.74
		c0.833-0.678,1.818-1.166,2.663-1.831c0.99-0.779,0.875-1.554-0.28-2.078c-0.613-0.278-1.302-0.384-1.929-0.634
		c-0.556-0.222-1.075-0.536-1.61-0.81c0.048-0.136,0.096-0.272,0.145-0.409c0.514,0.088,1.04,0.132,1.539,0.271
		c5.766,1.617,11.499,3.361,17.3,4.836c4.029,1.024,8.146,1.047,12.202-0.098c0.486-0.138,0.954-0.343,1.758-0.637
		c-0.619-0.298-0.936-0.492-1.279-0.608c-2.271-0.771-4.558-1.494-6.816-2.3c-0.809-0.288-1.297-0.128-1.847,0.531
		c-1.472,1.766-3.727,2.359-5.486,1.557c-1.25-0.57-1.347-1.243-0.287-2.114c0.308-0.252,0.658-0.451,0.982-0.686
		c0.286-0.205,0.562-0.426,1.153-0.875c-1.02-0.725-1.849-1.43-2.795-1.897c-0.207-0.102-0.995,0.559-1.238,1.015
		c-1.504,2.822-4.683,3.398-7.328,1.181c1.522-2.298,4.136-2.937,6.612-4.109c-0.785-0.719-1.448-1.224-1.98-1.84
		c-0.621-0.719-1.208-1.491-1.663-2.321c-0.476-0.868-0.157-1.431,0.829-1.438c0.731-0.006,1.489,0.218,2.19,0.466
		c0.556,0.195,1.027,0.616,1.564,0.879c1.165,0.568,1.77,1.306,1.762,2.771c-0.012,2.23,1.618,3.528,4.379,3.616
		c-0.425-0.961-0.778-1.8-1.165-2.622c-0.491-1.042-1.057-2.052-1.505-3.112c-0.372-0.879,0.104-1.153,0.94-1.079
		c2.634,0.235,5.099,2.385,5.466,4.954c0.106,0.737-0.283,1.533-0.335,2.31c-0.034,0.503-0.043,1.295,0.241,1.472
		c0.667,0.418,1.515,0.545,2.291,0.789c0.094-0.389,0.288-0.783,0.264-1.164c-0.077-1.189-0.313-2.372-0.344-3.561
		c-0.031-1.201,0.701-1.622,1.831-1.181c1.985,0.773,3.187,2.513,3.199,4.634c0.002,0.439,0.062,0.892-0.017,1.317
		c-0.251,1.347,1.44,2.147,2.444,1.9c0.698-0.173,1.102-0.55,0.687-1.288c-0.429-0.764-0.958-1.472-1.375-2.241
		c-0.544-1.002-0.309-1.377,0.801-1.48c1.512-0.142,2.769,0.352,3.716,1.523c0.473,0.586,0.905,1.226,1.237,1.899
		c1.123,2.276,1.268,2.403,3.794,2.059c1.167-0.159,2.315-0.456,3.472-0.69c0.059-0.131,0.117-0.263,0.175-0.394
		c-0.768-0.825-1.479-1.713-2.313-2.463c-2.824-2.541-6.336-3.83-9.767-5.262c-1.059-0.441-2.106-0.911-3.121-1.482
		c2.804-0.491,5.445-0.211,7.866,1.384c0.402,0.265,0.9,0.382,1.354,0.567c0.085-0.475,0.094-0.983,0.282-1.412
		c0.134-0.306,0.488-0.681,0.783-0.719c0.787-0.101,1.596-0.042,2.396-0.035c1.814,0.016,2.4,1.077,1.493,2.693
		c-0.625,1.114-0.548,1.783,0.422,2.294c0.408,0.215,0.975,0.129,1.469,0.18c0.031-0.374,0.096-0.749,0.086-1.123
		c-0.013-0.518-0.051-1.039-0.129-1.551c-0.279-1.836,0.318-2.53,2.173-2.494c2.79,0.056,4.394,2.438,3.38,5.022
		c-0.733,1.869,0.271,2.885,2.988,2.751c-0.221-1.254-0.505-2.478-0.632-3.716c-0.083-0.812-0.017-1.662,0.129-2.468
		c0.153-0.848,0.795-1.14,1.532-0.7c0.983,0.586,1.909,1.272,2.823,1.965c0.367,0.278,0.637,0.685,0.952,1.033
		c0.131-0.012,0.263-0.023,0.395-0.034c0.086-0.737,0.226-1.474,0.247-2.212c0.047-1.637,0.023-1.64,1.694-1.641
		c3-0.001,5.999-0.002,8.999,0.001c1.991,0.002,2.188,0.175,2.589,2.16C76.696,138.114,76.831,138.486,77.021,139.152z"/>
	<path fill-rule="evenodd" clip-rule="evenodd" fill="#222222" stroke="#020202" stroke-width="0.5" stroke-miterlimit="10" d="
		M141.145,134.455c-0.584-0.505-1.116-1.098-1.771-1.485c-0.46-0.271-1.206-0.507-1.604-0.311c-0.392,0.192-0.762,0.989-0.691,1.452
		c0.207,1.369,0.632,2.707,0.98,4.054c0.353,1.359,0.031,1.739-1.328,1.438c-1.848-0.409-3.251-1.434-3.754-3.312
		c-0.282-1.055-0.412-2.197-0.355-3.286c0.072-1.379,0.012-1.562-1.415-1.74c-3.247-0.405-6.45-0.087-9.625,0.585
		c-1.873,0.397-3.717,0.93-5.587,1.346c-0.352,0.078-1.061-0.041-1.092-0.183c-0.112-0.504-0.193-1.393,0.056-1.534
		c1.335-0.76,1.199-2.065,1.425-3.24c0.499-2.598,2.364-4.121,4.893-3.942c0.379,0.027,0.75,0.168,1.402,0.321
		c-0.852,1.649-1.623,3.143-2.544,4.926c1.301,0,2.361,0.091,3.388-0.057c0.303-0.044,0.611-0.736,0.739-1.182
		c0.517-1.805,1.487-3.173,3.334-3.787c1.045-0.349,1.362-0.144,1.275,0.942c-0.047,0.584-0.239,1.169-0.441,1.726
		c-0.459,1.263-0.397,1.564,0.931,1.868c1.823,0.417,3.682,0.684,5.529,0.985c2.488,0.407,4.729,1.222,6.087,3.554
		c0.132,0.227,0.227,0.474,0.339,0.712C141.259,134.354,141.202,134.405,141.145,134.455z"/>
	<path fill-rule="evenodd" clip-rule="evenodd" fill="#222222" stroke="#020202" stroke-width="0.5" stroke-miterlimit="10" d="
		M139.949,118.49c-0.913,0.321-1.498,0.521-2.079,0.733c-1.198,0.437-1.301,0.813-0.492,1.787c1.944,2.34,3.731,5.952,4.04,8.164
		c-1.814,0.254-4.143-1.26-4.877-3.296c-0.291-0.807-0.423-1.705-0.444-2.565c-0.02-0.846-0.241-1.52-1.113-1.479
		c-0.298,0.015-0.726,0.795-0.803,1.272c-0.207,1.281-0.256,2.588-0.378,3.998c-2.188-0.509-3.535-1.812-4.198-3.791
		c-0.353-1.052-0.504-2.172-0.724-3.266c-0.201-0.997-1.557-2.055-2.528-1.947c-0.812,0.09-1.366,0.837-1.125,1.625
		c0.174,0.567,0.52,1.081,0.709,1.646c0.162,0.483,0.211,1.005,0.31,1.509c-0.111,0.093-0.223,0.186-0.335,0.278
		c-1.317-0.522-2.671-0.972-3.94-1.593c-1.062-0.52-1.411-1.575-1.496-2.707c-0.03-0.397,0.108-0.909-0.091-1.17
		c-0.323-0.424-0.904-0.987-1.297-0.932c-0.461,0.065-1.183,0.728-1.185,1.134c-0.005,1.138,0.328,2.272,0.477,3.416
		c0.066,0.519,0.011,1.054,0.011,1.603c-2.062-0.23-3.572-1.76-3.655-3.679c-0.076-1.757-0.029-3.519-0.009-5.278
		c0.005-0.352,0.119-0.708,0.216-1.053c0.354-1.272,0.311-2.666-0.117-3.898c-0.076-0.222-0.108-0.47-0.108-0.705
		c-0.005-3.84-0.035-7.681,0.016-11.52c0.022-1.661,0.672-2.216,2.394-2.324c0.806,1.192,0.223,2.464,0.216,3.706
		c-0.002,0.414,0.096,0.936,0.356,1.208c0.174,0.181,0.849,0.148,1.061-0.047c0.241-0.222,0.334-0.746,0.289-1.114
		c-0.323-2.634,0.919-4.674,2.361-6.728c0.999,0.653,1.232,1.539,1.229,2.54c-0.013,3.812,0.086,3.695,3.718,2.764
		c2.588-0.664,5.091-1.655,7.672-2.35c1.882-0.507,3.829-0.7,5.86,0.08c-1.875,2.796,0.885,3.815,1.933,5.521
		c-1.8,1.993-5.353,1.53-6.944-0.946c-1.457-2.266-1.64-2.322-4.153-1.293c-1.42,0.581-1.481,1.11-0.312,2.199
		c0.697,0.648,1.438,1.286,1.984,2.054c0.694,0.975,0.314,1.645-0.88,1.825c-2.282,0.344-3.956-0.521-5.264-2.722
		c-1.05-1.767-1.048-1.763-2.944-0.881c-1.594,0.742-3.195,1.468-4.787,2.214c-0.346,0.162-0.664,0.381-0.995,0.574
		c-0.005,0.124-0.011,0.249-0.016,0.373c1.083,0.304,2.147,0.726,3.251,0.886c2.247,0.326,4.517,0.494,6.773,0.759
		c1.542,0.182,3.072,0.503,4.618,0.591c0.771,0.044,1.624-0.167,2.334-0.492c1.008-0.461,1.881-1.215,2.886-1.685
		c0.538-0.252,1.279-0.345,1.843-0.191c0.595,0.162,1.086,0.702,1.622,1.077c-0.396,0.442-0.799,0.879-1.188,1.328
		c-0.395,0.457-1.004,0.894-1.076,1.401c-0.044,0.309,0.769,0.721,1.166,1.116c0.247,0.247,0.677,0.628,0.615,0.815
		c-0.454,1.391,0.217,2.489,0.782,3.636c0.3,0.606,0.604,1.224,0.793,1.869c0.422,1.435-0.187,2.06-1.67,1.778
		c-1.558-0.295-2.729-1.128-3.394-2.576c-0.55-1.197-0.96-2.462-1.563-3.629c-0.451-0.872-1.076-1.663-1.699-2.429
		c-0.187-0.23-0.694-0.424-0.928-0.327c-0.229,0.096-0.456,0.604-0.409,0.888c0.126,0.769,0.348,1.532,0.624,2.264
		c0.309,0.817,0.8,1.57,1.062,2.399c0.318,1.005-0.038,1.323-1.056,1.1c-2.726-0.598-4.368-2.44-4.749-5.327
		c-0.214-1.624-0.981-2.421-2.298-2.386c-1.142,0.031-1.599,0.682-1.161,1.755c0.225,0.55,0.656,1.018,0.861,1.572
		c0.193,0.524,0.214,1.113,0.312,1.675c-0.527,0.062-1.073,0.247-1.577,0.167c-1.759-0.281-3.329,0.689-3.679,2.407
		c-0.057,0.278-0.03,0.718,0.14,0.855c0.16,0.13,0.585,0.013,0.856-0.091c1.262-0.48,2.475-1.229,3.774-1.426
		c1.155-0.176,2.42,0.162,3.6,0.432c0.723,0.165,0.641,0.662,0.116,1.139c-1.332,1.211-1.241,1.524,0.354,2.443
		c1.121,0.646,2.087,0.785,3.322,0.141c1.892-0.986,3.925-1.434,5.897-0.076C139.04,117.547,139.34,117.915,139.949,118.49z
		 M121.928,111.315c-0.49-1.874-0.887-3.438-1.318-4.99c-0.057-0.203-0.27-0.397-0.458-0.522c-0.759-0.504-3.231-0.127-3.854,0.565
		c-0.575,0.642,0.369,4.465,1.217,4.594C118.947,111.18,120.408,111.205,121.928,111.315z"/>
	<path fill-rule="evenodd" clip-rule="evenodd" fill="#222222" stroke="#020202" stroke-width="0.5" stroke-miterlimit="10" d="
		M141.995,89.355c0.155,1.071-0.557,1.14-1.176,1.08c-2.416-0.229-4.825-0.524-7.237-0.795c-1.147-0.129-2.293-0.348-3.442-0.361
		c-1.673-0.021-2.131,0.63-1.767,2.25c0.053,0.233,0.107,0.467,0.164,0.7c0.201,0.836-0.225,1.14-0.971,1.042
		c-1.54-0.201-2.876-0.818-3.586-2.281c-0.537-1.107-0.854-2.325-1.415-3.418c-0.337-0.658-0.845-1.402-1.47-1.701
		c-1.097-0.524-1.797,0.081-1.827,1.305c-0.032,1.285-0.087,2.569-0.131,3.854c-0.145,0.065-0.289,0.13-0.434,0.194
		c-1.191-0.601-2.404-1.163-3.554-1.835c-0.213-0.125-0.223-0.693-0.229-1.059c-0.057-3.1-0.122-6.2-0.12-9.301
		c0.002-1.828-0.058-3.686,0.233-5.479c0.306-1.881,1.625-3.071,3.518-3.508c1.057-0.244,1.529,0.16,1.352,1.232
		c-0.143,0.859-0.451,1.693-0.689,2.537c-0.151,0.536-0.409,1.066-0.434,1.607c-0.025,0.541,0.034,1.461,0.311,1.569
		c0.651,0.255,1.462,0.192,2.189,0.106c0.166-0.02,0.337-0.647,0.372-1.009c0.119-1.228,0.079-2.479,0.287-3.688
		c0.26-1.514,1.235-2.553,2.613-3.229c0.88-0.433,1.398-0.144,1.551,0.765c0.076,0.454,0.049,0.953-0.056,1.403
		c-0.254,1.089-0.567,2.163-0.881,3.237c-0.198,0.68,0.041,0.942,0.733,1c2.036,0.168,2.969-0.91,2.428-2.858
		c-0.637-2.288,0.087-3.938,2.014-4.591c1.079-0.365,1.582-0.109,1.798,1.021c0.096,0.499,0.015,1.03,0.026,1.546
		c0.009,0.377,0.038,0.754,0.059,1.132c0.452-0.054,0.993,0.032,1.338-0.188c0.972-0.625,1.829-1.426,2.795-2.062
		c0.989-0.652,1.998-1.359,3.103-1.725c0.777-0.257,1.73,0.019,2.605,0.058c0.023,0.137,0.047,0.272,0.071,0.409
		c-0.516,0.414-1.029,0.83-1.547,1.241c-1.722,1.366-1.774,2.053-0.42,3.761c0.583,0.735,1.041,1.571,1.713,2.601
		c-2.692,0.143-4.499-1.201-6.53-1.904c-0.516,1.018,0.023,1.688,0.562,2.307c0.523,0.599,1.187,1.077,1.692,1.688
		c0.545,0.659,0.542,1.223-0.494,1.44c-1.982,0.417-3.726-0.112-5.258-1.339c-0.847-0.679-1.574-1.246-2.568-0.239
		c-1.037,1.05-1.16,1.844-0.347,3.078c0.286,0.435,0.646,0.834,0.851,1.302c0.161,0.372,0.134,0.824,0.191,1.241
		c-0.412,0.048-0.935,0.28-1.217,0.111c-1.082-0.644-2.216-1.288-3.093-2.169c-1.732-1.74-4.586-1.756-6.305,0.198
		c0.971,1.411,2.316,2.462,3.863,3.074c2.142,0.847,4.381,1.469,6.608,2.075c1.113,0.303,1.652-0.174,1.931-1.362
		c0.618-2.649,2.061-4.073,4.142-4.09c1.276-0.011,1.644,0.477,1.086,1.625c-0.361,0.744-0.928,1.388-1.378,2.092
		c-0.405,0.636-0.866,1.258-1.14,1.951c-0.242,0.613-0.188,1.277,0.618,1.572c0.782,0.287,1.352-0.006,1.686-0.691
		c0.24-0.494,0.26-1.101,0.518-1.581c0.67-1.249,1.376-2.483,2.161-3.66c0.197-0.297,0.748-0.358,1.136-0.527
		c0.17,0.426,0.521,0.874,0.474,1.274c-0.124,1.059-0.416,2.099-0.653,3.143c-0.043,0.192-0.142,0.373-0.214,0.56
		C139.323,89.375,139.51,89.632,141.995,89.355z"/>
	<path fill-rule="evenodd" clip-rule="evenodd" fill="#222222" stroke="#020202" stroke-width="0.5" stroke-miterlimit="10" d="
		M19.998,58.438c-0.385-0.677-0.706-1.168-0.956-1.693c-0.512-1.075-1.072-2.139-1.448-3.262c-0.3-0.895,0.125-1.481,1.159-1.438
		c3.228,0.135,4.986,2.145,4.895,5.27c-0.024,0.82,0.136,1.228,0.889,1.364c1.527,0.275,3.052,0.641,4.592,0.738
		c1.237,0.077,1.563-0.41,1.153-1.562c-0.411-1.153-0.972-2.269-1.611-3.313c-0.205-0.334-0.854-0.452-1.325-0.558
		c-1.119-0.252-2.316-0.276-3.366-0.689c-1.635-0.642-2.524-3.123-1.816-4.711c0.106-0.239,0.554-0.495,0.81-0.463
		c0.501,0.061,0.991,0.287,1.462,0.499c1.485,0.671,1.735,0.563,2.114-1.045c0.329-1.396,0.54-2.828,0.965-4.193
		c0.542-1.74,1.672-3.001,3.54-3.391c0.37-0.077,0.792,0.094,1.19,0.151c-0.065,0.446,0.001,0.98-0.225,1.32
		c-0.393,0.589-0.989,1.04-1.452,1.588c-0.174,0.207-0.214,0.526-0.316,0.794c0.083,0.095,0.165,0.191,0.247,0.287
		c0.688-0.323,1.381-0.637,2.064-0.972c0.886-0.435,1.831-1.214,2.771-0.492c0.985,0.758,0.196,1.799-0.067,2.652
		c-0.755,2.447-3.176,3.877-5.71,3.495c-0.261-0.04-0.534-0.006-1.199-0.006c1.024,2.039,1.941,3.865,2.858,5.69
		c0.117-0.023,0.234-0.046,0.351-0.07c0.173-0.513,0.34-1.029,0.522-1.539c0.255-0.712,0.411-1.495,0.822-2.104
		c0.287-0.426,0.934-0.842,1.411-0.832c0.378,0.008,0.861,0.608,1.093,1.053c1.076,2.057,0.354,3.949-0.656,5.792
		c-0.434,0.792-0.73,1.576,0.315,2.143c0.795,0.432,1.367,0.303,1.608-0.667c0.211-0.85,0.384-1.724,0.724-2.523
		c0.257-0.605,0.672-1.197,1.16-1.637c0.721-0.651,1.68-0.301,1.973,0.638c0.261,0.838,0.478,1.689,0.737,2.528
		c0.492,1.584,0.368,3.016-1.033,4.107c-0.513,0.399-0.528,0.774-0.053,1.163c0.708,0.58,1.393,1.213,2.175,1.675
		c1.267,0.748,2.605,1.375,4.157,2.181c-0.281-1.009-0.475-1.838-0.742-2.644c-1.257-3.788-2.503-7.582-3.842-11.341
		c-0.189-0.532-0.797-1.034-1.334-1.294c-0.778-0.378-1.693-0.463-2.507-0.784c-1.262-0.497-1.945-1.499-2.092-2.837
		c-0.082-0.745,0.175-1.267,1.055-1.218c0.359,0.02,0.723-0.006,1.078,0.04c1.932,0.25,1.931,0.256,1.933-1.627
		c0-0.08,0.003-0.16,0-0.24c-0.045-0.831,0.191-1.878-0.227-2.424c-0.327-0.427-1.466-0.233-2.244-0.316
		c-2.203-0.236-3.446-1.465-3.544-3.499c-0.062-1.278,0.505-1.851,1.794-1.753c0.475,0.036,0.944,0.16,1.412,0.264
		c1.408,0.314,1.56,0.178,1.616-1.297c0.043-1.153,0.059-2.319,0.255-3.45c0.113-0.653,0.56-1.25,0.981-2.132
		c1.088,1.823,1.315,3.505,1.391,5.207c0.119,2.671,0.142,5.348,0.272,8.018c0.038,0.775,0.304,1.54,0.465,2.309
		c0.12,0.043,0.24,0.087,0.36,0.131c0.335-0.432,0.808-0.814,0.982-1.303c0.604-1.691,1.109-3.418,1.639-5.135
		c0.286-0.927-0.412-1.273-1.021-1.665c-1.618-1.042-2.1-2.241-1.519-3.965c0.127-0.377,0.443-0.929,0.72-0.96
		c0.392-0.043,0.938,0.225,1.221,0.539c0.447,0.495,0.694,1.164,1.093,1.711c0.568,0.781,1.049,0.736,1.512-0.124
		c0.206-0.383,0.365-0.804,0.466-1.227c0.395-1.653,0.268-1.812-1.461-1.985c-1.512-0.152-2.212-0.741-2.274-2.255
		c-0.04-0.974,0.206-1.968,0.391-2.939c0.189-0.997,0.912-1.117,1.613-0.646c0.601,0.404,1.081,1.019,1.533,1.604
		c0.351,0.455,0.576,1.007,0.93,1.646c1.193-1.421,1.011-2.999,1.215-4.463c0.142-1.024,0.158-2.067,0.319-3.089
		c0.069-0.439,0.362-0.844,0.629-1.431c1.373,1.384,1.696,2.873,1.38,4.52c-0.33,1.723-0.739,3.43-1.112,5.145
		c-0.276,1.269,0.018,1.846,1.198,2.359c2.234,0.971,2.363,0.947,2.642-1.45c0.318-2.729,0.415-5.486,0.755-8.212
		c0.311-2.484,0.809-4.947,1.253-7.414c0.065-0.363,0.289-0.697,0.498-1.179c1.035,1.153,0.973,2.344,0.77,3.515
		c-0.212,1.217-0.615,2.403-0.794,3.623c-0.069,0.468,0.247,0.993,0.387,1.492c0.433-0.231,0.892-0.425,1.289-0.707
		c0.25-0.178,0.363-0.553,0.616-0.724c0.464-0.313,0.986-0.541,1.484-0.804c0.235,0.517,0.655,1.028,0.671,1.552
		c0.048,1.514-0.487,2.877-1.797,3.719c-2.255,1.448-3.213,3.427-2.945,6.093c0.121,1.205,0.021,2.431,0.307,3.75
		c0.269-0.358,0.611-0.681,0.794-1.078c1.106-2.391,2.178-4.798,3.257-7.202c0.589-1.312,1.119-2.652,1.766-3.935
		c0.644-1.276,1.4-2.496,2.212-3.926c-0.703-0.277-1.348-0.541-2-0.786c-1.641-0.616-2.617-1.747-2.861-3.517
		c-0.168-1.214,0.228-1.73,1.429-1.427c1.184,0.297,2.313,0.816,3.456,1.266c0.322,0.127,0.607,0.352,0.9,0.526
		c1.119-1.485,1.065-1.698-0.548-2.436c-2.271-1.038-2.952-2.066-2.749-4.095c0.089-0.888,0.509-1.258,1.362-0.888
		c0.828,0.359,1.626,0.787,2.741,1.334c0.089-1.296,0.196-2.379,0.233-3.464c0.073-2.173,1.1-3.744,2.935-4.368
		c0.334-0.114,0.697-0.147,1.05-0.196c0.76-0.105,1.066,0.205,1.086,1c0.052,2.011-0.806,3.627-2.039,5.11
		c-0.347,0.418-0.683,0.846-1.024,1.269c0.064,0.129,0.129,0.258,0.194,0.387c0.612-0.224,1.215-0.478,1.838-0.665
		c0.658-0.197,1.335-0.33,2.004-0.491c-0.048,0.722,0.063,1.502-0.177,2.153c-0.545,1.479-1.754,2.359-3.211,2.848
		c-1.128,0.378-1.826,1.037-2.069,2.235c-0.174,0.857-0.566,1.669-0.75,2.525c-0.329,1.524,0.185,1.946,1.646,1.421
		c0.526-0.189,1.033-0.436,1.565-0.603c1.071-0.336,1.41-0.018,1.217,1.102c-0.485,2.811-1.851,4.07-5.085,4.477
		c-0.875,0.11-1.368,0.449-1.728,1.209c-2.248,4.753-4.065,9.649-4.806,14.881c-0.592,4.174-0.525,8.299,1.436,12.174
		c0.418,0.826,0.993,1.572,1.496,2.355c0.152-0.021,0.305-0.042,0.457-0.063c0.192-0.731,0.45-1.453,0.562-2.197
		c0.285-1.892,0.502-3.793,0.749-5.69c0.175-1.352-0.148-2.603-1.113-3.536c-1.76-1.703-1.617-3.82-1.446-5.938
		c0.072-0.896,0.779-1.189,1.467-0.65c0.738,0.579,1.328,1.356,1.945,2.077c0.495,0.578,1.06,1.493,1.793,0.797
		c0.683-0.648,0.961-1.736,1.329-2.667c0.021-0.054-0.735-0.489-1.167-0.638c-2.456-0.85-3.436-2.215-3.275-4.631
		c0.005-0.08-0.019-0.176,0.017-0.237c0.425-0.739,0.858-1.472,1.29-2.207c0.625,0.488,1.351,0.892,1.851,1.486
		c0.609,0.724,0.943,1.684,1.568,2.389c0.292,0.33,0.99,0.301,1.504,0.435c0.104-0.574,0.391-1.189,0.271-1.711
		c-0.202-0.877-0.765-1.668-0.994-2.543c-0.538-2.057,0.506-4.387,2.301-5.473c0.666-0.403,1.166-0.341,1.666,0.269
		c1.046,1.277,1.125,2.706,0.638,4.183c-0.222,0.672-0.594,1.313-0.99,1.908c-2.329,3.501-3.75,7.403-5.07,11.35
		c-0.128,0.383-0.113,0.813-0.187,1.404c2.188-0.348,4.155-1.742,6.329-0.398c-0.623,1.647-1.422,3.094-2.784,4.163
		c-1.343,1.056-2.304,1.131-3.712,0.124c-0.949-0.678-1.41-0.389-1.538,0.597c-0.168,1.287-0.201,2.591-0.316,4.24
		c0.913-0.364,1.5-0.627,2.106-0.833c0.966-0.328,1.928-0.77,2.924-0.885c1.079-0.125,1.399,0.42,1.206,1.495
		c-0.393,2.184-1.781,3.5-3.721,4.358c-1.972,0.873-2.059,1.125-1.129,3.114c1.303,2.786,4.163,4.286,7.104,3.667
		c0.417-0.088,0.775-0.454,1.161-0.692c-0.294-0.387-0.569-0.791-0.894-1.15c-0.12-0.133-0.357-0.166-0.545-0.229
		c-2.243-0.76-3.221-4.081-1.766-5.997c0.603-0.794,2.128-0.764,2.985,0.181c0.665,0.733,1.169,1.613,1.748,2.425
		c0.242,0.339,0.493,0.671,0.987,1.342c0.351-1.215,0.648-2.058,0.83-2.924c0.155-0.738,0.163-1.505,0.262-2.256
		c0.106-0.803-0.18-1.147-1.034-1.196c-2.775-0.16-3.955-1.188-4.272-3.873c-0.101-0.847,0.238-1.747,0.42-2.898
		c1.726,0.814,3.172,1.497,4.846,2.286c0.099-0.876,0.217-1.526,0.23-2.179c0.008-0.431-0.162-0.862-0.207-1.298
		c-0.205-1.956-0.775-3.322-3.202-3.487c-1.9-0.129-3.369-1.415-3.937-3.402c-0.372-1.302,0.184-1.933,1.53-1.644
		c0.97,0.208,1.901,0.595,2.849,0.906c1.347,0.442,1.802,0.166,1.822-1.245c0.017-1.159-0.019-2.189-1.519-2.726
		c-1.264-0.451-1.083-1.952-1.039-3.066c0.035-0.892,0.309-1.834,0.718-2.63c0.284-0.552,0.968-1.239,1.49-1.254
		c0.916-0.026,1.287,0.9,1.31,1.727c0.038,1.393-0.067,2.791-0.107,4.187c-0.035,1.237-0.083,2.475-0.077,3.713
		c0.001,0.279,0.197,0.558,0.399,1.086c0.45-0.512,0.781-0.823,1.031-1.19c0.359-0.527,0.621-1.122,0.992-1.639
		c0.467-0.651,0.917-0.632,1.375,0.088c1.38,2.169,0.827,4.872-1.517,6.81c-1.032,0.853-1.499,1.823-1.18,3.145
		c0.065,0.269,0.045,0.556,0.075,0.833c0.292,2.811,0.586,5.621,0.921,8.828c0.696-0.83,1.357-1.422,1.776-2.153
		c1.337-2.33,1.954-4.907,2.068-7.56c0.284-6.595-1.291-12.826-3.91-18.833c-0.477-1.093-1.091-1.485-2.335-1.113
		c-2.236,0.669-4.317-0.216-5.007-2.073c-0.214-0.575-0.231-1.38,0.021-1.906c0.126-0.262,1.067-0.165,1.639-0.165
		c0.311,0,0.624,0.207,0.931,0.196c0.565-0.019,1.435,0.059,1.622-0.246c0.299-0.486,0.235-1.263,0.155-1.896
		c-0.077-0.603-0.522-0.871-1.153-0.592c-2.853,1.262-4.849-0.469-6.94-1.863c-0.021-0.151-0.041-0.302-0.061-0.454
		c1.074-0.271,2.137-0.604,3.226-0.791c0.699-0.12,1.439-0.069,2.155-0.013c1.104,0.087,1.668-0.437,1.767-1.479
		c0.108-1.149,0.254-2.311,0.177-3.454c-0.033-0.48-0.495-1.096-0.935-1.356c-2.406-1.425-2.834-2.226-2.433-4.954
		c0.075-0.507,0.096-1.021,0.154-1.664c1.64,0.156,2.66,1.099,3.18,2.421c0.52,1.318,0.769,2.752,1.046,4.153
		c0.191,0.968,0.228,1.967,0.357,3.172c0.53-0.256,0.947-0.418,1.321-0.649c0.44-0.273,0.814-0.658,1.267-0.903
		c1.074-0.583,1.781-0.167,1.871,1.044c0.147,1.969-0.688,3.392-2.393,4.338c-0.454,0.252-1.095,0.401-1.308,0.786
		c-0.228,0.416-0.053,1.052-0.055,1.592c0.419-0.008,0.955,0.146,1.232-0.056c0.637-0.464,1.138-1.112,1.713-1.666
		c1.071-1.031,2.476-1.426,3.245-0.934c0.735,0.47,1.031,2.261,0.211,3.431c-0.723,1.031-1.785,1.919-2.877,2.568
		c-1.023,0.609-1.268,1.239-0.795,2.214c0.627,1.292,1.251,2.591,1.982,3.824c1.492,2.511,3.076,4.97,3.491,7.951
		c0.021,0.144,0.146,0.273,0.292,0.534c0.962-0.95,1.162-2.111,1.227-3.269c0.08-1.436-0.03-2.881,0.042-4.318
		c0.049-0.981-0.457-1.234-1.275-1.329c-0.668-0.077-1.347-0.173-1.986-0.374c-1.368-0.43-2.048-1.471-2.249-2.839
		c-0.199-1.347,0.477-1.925,1.758-1.459c0.631,0.229,1.202,0.623,1.801,0.94c0.405,0.215,0.812,0.427,1.484,0.78
		c0-2.515,0-4.76,0-7.062c1.162,0.078,1.355,0.816,1.4,1.514c0.208,3.183,0.355,6.369,0.526,9.554
		c0.07,1.314,0.137,2.629,0.217,3.942c0.054,0.877,0.495,1.066,1.3,0.779c1.666-0.593,2.181-1.924,1.66-4.043
		c-0.425-1.733-0.711-3.5-1.053-5.252c-0.022-0.115-0.043-0.263,0.008-0.355c0.3-0.547,0.621-1.083,0.936-1.624
		c0.24,0.488,0.619,0.955,0.696,1.468c0.241,1.615,0.357,3.248,0.549,4.871c0.055,0.467,0.199,0.924,0.366,1.671
		c0.639-0.405,1.18-0.674,1.628-1.053c0.517-0.436,0.921-1.002,1.427-1.453c0.888-0.795,1.692-0.578,2.143,0.533
		c0.531,1.312,0.086,3.081-1.074,3.883C98.723,30,98,30.189,97.386,30.553c-0.423,0.25-1.13,0.725-1.076,0.943
		c0.146,0.597,0.519,1.289,1.016,1.598c0.36,0.224,1.114,0.003,1.598-0.222c0.401-0.188,0.651-0.686,0.994-1.02
		c0.304-0.295,0.644-0.554,0.966-0.828c1.385,1.66,1.199,3.96-0.364,5.61c-1.376,1.453-1.297,2.871,0.509,4.612
		c0.664-1.689,1.537-3.208,1.832-4.833c0.379-2.089,0.343-4.261,0.385-6.399c0.016-0.788,0.227-1.013,0.975-0.865
		c1.626,0.322,2.334,1.455,1.872,3.074c-0.307,1.073-0.646,2.136-0.945,3.211c-0.051,0.178,0.024,0.391,0.067,0.873
		c0.881-0.222,1.685-0.475,2.508-0.615c0.794-0.135,1.608-0.153,2.414-0.223c-0.073,0.796-0.016,1.632-0.244,2.38
		c-0.683,2.23-1.35,2.578-3.698,2.572c-0.497-0.001-1.24,0.501-1.444,0.961c-0.48,1.084-0.728,2.276-1.024,3.436
		c-0.198,0.777,0.288,1.148,0.963,1.19c0.587,0.037,1.187-0.082,1.777-0.156c1.049-0.132,1.467,0.258,1.224,1.288
		c-0.174,0.731-0.427,1.463-0.767,2.132c-0.747,1.471-0.96,1.527-2.536,1.035c-1.857-0.581-2.646-0.177-2.984,1.716
		c-0.807,4.5-3.089,8.367-5.162,12.328c-0.148,0.282-0.304,0.562-0.432,0.854C95.765,65.3,95.8,65.431,95.8,65.751
		c2.448-0.67,4.629-1.606,6.346-3.428c1.523-1.617,1.543-1.922,0.404-3.809c-0.915-1.515-0.715-3.34,0.472-4.795
		c0.55-0.673,1.292-1.021,1.997-0.647c0.544,0.289,1.074,0.975,1.211,1.576c0.209,0.915,0.108,1.909,0.073,2.866
		c-0.034,0.917,0.415,1.201,1.175,0.882c0.645-0.27,1.305-0.632,1.793-1.119c1.107-1.106,1.032-1.492-0.222-2.423
		c-1.496-1.111-2.082-2.887-1.522-4.553c0.315-0.937,0.966-1.518,1.926-1.542c0.973-0.024,1.149,0.825,1.36,1.567
		c0.208,0.728,0.38,1.472,0.66,2.172c0.328,0.819,0.948,1.125,1.449,0.219c0.824-1.491,1.515-3.059,2.177-4.63
		c0.057-0.135-0.477-0.692-0.812-0.788c-1.067-0.304-2.201-0.39-3.254-0.731c-1.604-0.52-2.553-1.72-2.978-3.341
		c-0.217-0.828-0.017-1.461,0.95-1.234c1.455,0.341,2.882,0.82,4.299,1.303c0.465,0.158,0.864,0.511,1.385,0.83
		c0.91-2.276-1.386-2.772-2.026-4.101c1.302-0.417,2.635-0.061,3.234,1.253c0.683,1.495,1.146,3.136,1.415,4.762
		c0.308,1.85,0.453,2.025,2.238,1.629c0.748-0.167,1.574,0.014,2.365,0.036c-0.091,0.798-0.027,1.655-0.303,2.383
		c-0.671,1.771-2.221,2.347-3.952,2.708c-0.707,0.147-1.506,0.552-1.952,1.095c-0.776,0.945-1.319,2.083-1.942,3.151
		c-0.377,0.646-0.158,1.158,0.554,1.214c1.057,0.083,2.129,0.054,3.187-0.022c0.671-0.049,1.323-0.306,1.993-0.407
		c0.928-0.139,1.064-0.632,0.827-1.452c-0.598-2.062-0.595-2.16,1.167-3.366c0.912-0.624,1.923-1.144,2.954-1.542
		c1.119-0.433,1.616-0.059,1.513,1.159c-0.068,0.797-0.379,1.609-0.741,2.335c-0.435,0.874-1.038,1.664-1.767,2.798
		c0.861-0.039,1.388-0.036,1.908-0.09c2.942-0.306,5.775-0.07,8.18,1.875c2.152,1.74,3.005,4.134,3.267,6.808
		c-2.386,0.344-4.554-0.873-4.915-2.828c-0.13-0.706,0.063-1.492,0.209-2.222c0.143-0.712,0.275-1.46-0.515-1.753
		c-0.524-0.193-1.39-0.257-1.736,0.044c-0.521,0.454-0.967,1.268-0.991,1.944c-0.022,0.639,0.556,1.291,0.843,1.949
		c0.214,0.492,0.385,1.002,0.586,1.531c-2.367,0.393-4.635-1.113-5.23-3.347c-0.052-0.192-0.067-0.394-0.109-0.589
		c-0.411-1.896-1.652-2.376-3.212-1.143c-0.312,0.246-0.475,1.008-0.343,1.414c0.229,0.701,0.754,1.303,1.133,1.958
		c0.506,0.876,0.991,1.765,1.63,2.906c-2.54-0.123-4.453-0.86-5.816-2.53c-0.393-0.482-0.208-1.525-0.117-2.291
		c0.147-1.253-0.214-1.623-1.457-1.292c-1.806,0.48-1.954,0.82-1.007,2.453c0.521,0.898,1.137,1.745,1.62,2.663
		c0.359,0.684,0.575,1.441,0.979,2.491c-1.635-0.678-2.938-1.165-4.194-1.753c-1.245-0.582-2.078-1.557-2.558-2.879
		c-0.164-0.453-0.773-1.156-0.996-1.094c-0.596,0.168-1.207,0.605-1.576,1.108c-0.156,0.213,0.183,0.935,0.463,1.296
		c0.962,1.243,2.31,2.236,2.491,4.105c-1.771,0.543-3.558,0.641-5.249-0.031c-0.58-0.229-1.01-1.091-1.298-1.755
		c-0.738-1.7-1.051-1.901-2.519-1.246c-1.395,0.623-1.486,0.989-0.671,2.633c0.069,0.139,0.104,0.294,0.218,0.619
		c-0.443,0.05-0.811,0.134-1.175,0.128c-4.074-0.066-8.183,0.137-12.207-0.348c-1.91-0.229-3.779-0.348-5.685-0.4
		c-0.467-0.013-0.992-0.461-1.364-0.834c-0.892-0.896-1.315-0.923-1.894,0.155c-0.48,0.896-1.169,1.21-2.146,1.208
		c-11.439-0.013-22.878-0.012-34.317,0.002c-0.725,0.002-1.276-0.08-1.314-0.967c-0.008-0.19-0.105-0.389-0.199-0.562
		c-0.666-1.225-1.66-2.223-3.044-2.238c-1.38-0.016-1.845,1.307-2.108,2.429c-0.249,1.061-0.855,1.479-1.82,1.507
		c-1.386,0.037-2.774,0.01-4.162,0.01c-0.049-0.131-0.099-0.26-0.149-0.391c0.603-0.523,1.203-1.053,1.81-1.572
		c0.938-0.803,1.951-1.533,2.803-2.42c0.726-0.754,0.542-1.178-0.454-1.558c-1.749-0.668-2.582-0.336-3.371,1.377
		c-0.958,2.081-2.032,4.038-4.58,4.489c-0.352,0.062-0.71,0.098-1.068,0.115c-0.71,0.033-0.884-0.309-0.755-0.984
		c0.373-1.947,1.275-3.601,2.646-5.015c0.244-0.252,0.482-0.51,0.72-0.761c-1.067-1.12-2.309-0.896-2.824,0.466
		c-0.31,0.819-0.478,1.696-0.828,2.497c-0.818,1.873-2.579,2.91-4.59,2.873c-0.831-0.015-1.159-0.359-0.838-1.105
		c0.501-1.164,1.056-2.31,1.659-3.424c0.373-0.689,0.876-1.307,1.322-1.958c-1.629-1.05-2.975-0.614-3.551,0.952
		c-0.369,1.005-0.784,2.021-1.362,2.914c-0.975,1.504-2.189,1.824-4.214,1.143c0.459-0.926,0.943-1.801,1.333-2.715
		c0.281-0.66,0.438-1.372,0.65-2.061c-0.81-0.011-1.631-0.1-2.424,0.012c-0.27,0.037-0.594,0.551-0.671,0.896
		c-0.12,0.535-0.018,1.115-0.068,1.672c-0.168,1.885-2.225,3.642-4.017,3.333c-0.307-0.054-0.754-0.753-0.718-1.112
		c0.303-3.062,1.715-5.464,4.73-6.461c1.913-0.631,3.963-0.847,5.954-1.243C18.715,58.658,19.253,58.571,19.998,58.438z
		 M54.622,40.577c0.053-0.922,0.065-1.394,0.11-1.862c0.164-1.694-0.115-2.05-1.758-2.269c-1.325-0.177-2.375-0.679-2.627-2.18
		c-0.127-0.756-0.607-0.839-1.081-0.321c-0.506,0.553-0.995,1.161-1.332,1.825c-2.203,4.335-2.778,9.046-2.983,13.81
		c-0.054,1.25,0.264,2.533,0.555,3.767c0.077,0.325,0.712,0.764,1.056,0.735c1.255-0.104,2.49-0.431,3.743-0.577
		c0.646-0.075,0.835-0.341,0.747-0.927c-0.156-1.031-0.875-1.527-1.734-1.971c-2.474-1.276-3.397-3.609-2.484-6.018
		c0.343-0.904,0.905-1.155,1.776-0.805c1.551,0.622,2.637,1.709,2.968,3.355c0.239,1.19,0.258,2.424,0.375,3.639
		c0.097,0.051,0.194,0.102,0.292,0.152c0.299-0.496,0.66-0.965,0.883-1.493c0.375-0.889,0.912-0.957,1.347-0.188
		c0.521,0.919,0.848,1.95,1.231,2.944c0.435,1.128,0.187,1.903-1.087,2.289c-0.914,0.276-1.011,0.935-0.437,1.679
		c0.391,0.505,0.782,1.012,1.194,1.5c1.753,2.078,3.497,4.164,5.28,6.215c0.894,1.028,1.956,1.716,3.683,1.134
		c-4.711-6.669-8.423-13.646-8.824-22.195c-1.391,1.132-2.224,0.653-3.092-0.076c-0.605-0.509-1.374-0.82-2.007-1.301
		c-0.598-0.454-1.191-0.954-1.649-1.541c-0.543-0.696-0.256-1.339,0.609-1.246c0.91,0.098,1.785,0.551,2.664,0.88
		C52.827,39.825,53.6,40.161,54.622,40.577z M96.25,52.968c0.042,0.129,0.085,0.258,0.128,0.388
		c-0.677,0.829-1.341,1.669-2.033,2.483c-0.771,0.905-1.716,1.219-2.902,0.896c-0.433-0.118-1.028-0.155-1.373,0.058
		c-0.381,0.235-0.579,0.79-0.794,1.236c-0.023,0.047,0.356,0.379,0.587,0.443c1.42,0.391,2.845,0.775,4.284,1.086
		c0.347,0.074,0.987-0.017,1.096-0.231c0.681-1.35,1.637-2.725,1.748-4.151c0.119-1.511,0.894-2.729,1.105-4.105
		c0.348-2.259,0.529-4.57,0.504-6.855c-0.042-3.85-1.479-7.317-3.422-10.582c-0.24-0.402-0.651-0.702-1.263-1.342
		c-0.072,2.037-1.228,2.89-2.345,3.827c-0.683,0.573-1.173,1.377-1.881,2.239c2.032,0.704,3.557-1.362,5.298-0.148
		c-1.231,2.208-2.382,4.367-5.073,4.989c-0.218,0.05-0.508,0.184-0.59,0.36c-0.629,1.349-1.572,2.624-1.039,4.151
		c0.659,0.407,1.185,0.93,1.764,1.386c0.284,0.224,0.658,0.372,1.014,0.437c0.074,0.014,0.292-0.482,0.358-0.764
		c0.2-0.853,0.296-1.734,0.545-2.571c0.52-1.751,1.646-2.92,3.511-3.171c0.301-0.04,0.865,0.267,0.957,0.534
		c1.111,3.229-0.395,5.91-3.637,6.58c-0.078,0.016-0.16,0.015-0.235,0.038c-0.968,0.298-0.891,1.085-0.892,1.858
		c-0.001,0.924,0.671,0.698,1.189,0.732C93.989,52.84,95.119,52.902,96.25,52.968z M80.141,63.691
		c0.144,0.094,0.289,0.188,0.433,0.282c3.636-3.058,7.346-6.049,9.456-10.851c-1.494,0.063-2.163-0.59-2.38-1.845
		c-0.051-0.293-0.618-0.496-0.947-0.741c-0.176,0.312-0.482,0.615-0.507,0.938c-0.151,2.051-0.887,3.88-2.013,5.567
		c-0.908,1.362-1.896,2.675-2.766,4.061C80.908,61.913,80.561,62.824,80.141,63.691z M48.559,60.951
		c-0.077,0.096-0.154,0.189-0.23,0.284c0.916,2.137,2.008,4.161,4.037,5.478c0.353,0.229,1.146,0.361,1.335,0.16
		c0.959-1.018,2.094-1.533,3.443-1.781c0.35-0.064,0.814-0.557,0.869-0.908c0.067-0.439-0.11-1.067-0.422-1.359
		c-0.196-0.186-0.917-0.034-1.252,0.189c-1.289,0.862-2.56,0.794-3.847,0.09c-0.77-0.421-1.491-0.931-2.257-1.359
		C49.697,61.443,49.119,61.212,48.559,60.951z M46.034,54.794c-0.341,2.28,1.112,4.877,2.641,5.146
		c2.323,0.409,4.637-0.454,4.972-1.815C51.142,57.03,48.647,55.938,46.034,54.794z M84.511,63.091
		c0.036,0.184,0.072,0.368,0.109,0.552c1.84,1.104,3.726,2.166,5.995,1.351c1.331-0.479,1.978-1.586,2.165-2.861
		c-2.037,0-3.962-0.094-5.87,0.043C86.093,62.234,85.31,62.771,84.511,63.091z"/>
	<path fill-rule="evenodd" clip-rule="evenodd" fill="#222222" stroke="#020202" stroke-width="0.5" stroke-miterlimit="10" d="
		M1.716,90.355c0.6-0.26,1.225-0.477,1.792-0.795c0.358-0.201,0.631-0.554,0.943-0.839c-0.28-0.248-0.525-0.564-0.847-0.734
		c-1.47-0.774-1.866-1.546-1.571-3.201c0.035-0.196,0.038-0.402,0.099-0.59c0.176-0.54,0.38-1.53,0.563-1.528
		c0.704,0.009,1.529,0.167,2.082,0.577c1.371,1.017,1.278,2.673,1.433,4.16c0.148,1.426,0.813,1.886,2.091,1.298
		c0.627-0.288,0.853-0.73,0.52-1.344c-0.323-0.593-0.699-1.159-1.083-1.715c-0.432-0.623-1.005-1.172-1.318-1.845
		c-0.26-0.558-0.231-1.249-0.331-1.881c0.682,0.015,1.386-0.07,2.037,0.077c0.476,0.108,0.898,0.5,1.318,0.802
		c1.559,1.124,1.852,1.126,3.296-0.172c0.743-0.667,1.444-1.381,2.17-2.067c0.468-0.442,0.83-0.874,0.261-1.514
		c-0.519-0.583-1.097-0.765-1.812-0.424c-0.071,0.034-0.146,0.077-0.197,0.135c-2.429,2.748-5.408,1.847-8.455,1.33
		c0.517-2.502,3.461-2.391,4.605-4.646c-0.824,0.233-1.354,0.387-1.884,0.533c-1.258,0.348-2.5,0.87-3.78,0.99
		c-1.35,0.127-1.634-0.378-1.007-1.582c0.47-0.902,1.126-1.73,1.812-2.49c0.701-0.776,0.728-1.441,0.046-2.201
		c-0.478-0.532-0.987-1.053-1.366-1.652C2.71,68.368,2.903,67.75,3.776,67.92c0.942,0.183,1.943,0.481,2.714,1.021
		c1.07,0.747,1.941,1.775,2.915,2.664c0.321,0.295,0.667,0.582,1.049,0.787c0.953,0.514,1.433,0.255,1.516-0.817
		c0.052-0.677-0.014-1.361,0.035-2.038c0.062-0.877,0.438-1.265,1.427-1.027c2.189,0.524,2.793,1.515,2.09,3.639
		c-0.162,0.488-0.356,0.987-0.395,1.492c-0.146,1.91,0.838,2.803,3.017,2.629c-0.113-0.461-0.256-0.894-0.321-1.337
		c-0.202-1.373-0.401-2.747-0.546-4.126c-0.082-0.78,0.286-1.068,1.101-0.898c2.021,0.424,3.345,2.141,3.446,4.6
		c0.031,0.759-0.095,1.541,0.058,2.27c0.076,0.363,0.609,0.853,0.953,0.867c0.29,0.013,0.881-0.599,0.859-0.899
		c-0.071-0.982-0.39-1.944-0.558-2.925c-0.154-0.898-0.258-1.809-0.341-2.718c-0.058-0.629,0.288-0.833,0.897-0.774
		c2.27,0.221,4.028,1.508,4.351,3.795c0.382,2.71,0.744,5.533,0.362,8.2C28.15,84.099,28,85.8,28.035,87.583
		c0.043,2.252-1.489,3.903-3.628,4.26c-0.74,0.123-1.318-0.066-1.439-0.86c-0.154-1.011-0.32-2.041-0.271-3.053
		c0.044-0.947-0.217-1.147-1.084-0.902c-1.541,0.435-2.595,1.185-2.692,2.988c-0.05,0.93-0.315,1.95-0.806,2.725
		c-0.449,0.708-1.253,1.355-2.042,1.646c-1.356,0.499-2.188-0.338-1.979-1.746c0.046-0.314,0.022-0.64,0.058-0.956
		c0.106-0.938-0.295-1.364-1.235-1.227c-1.853,0.271-3.699,0.599-5.557,0.829c-1.894,0.234-3.795,0.358-5.572-0.521
		C1.763,90.628,1.74,90.492,1.716,90.355z M20.736,80.854c-1.116,0.065-1.708,0.469-2.309,1.38
		c-0.496,0.752-1.452,1.317-2.324,1.675c-0.898,0.368-1.942,0.373-2.918,0.559c-1.162,0.221-1.114,1.046-0.951,1.936
		c0.171,0.932,0.781,0.983,1.528,0.808c0.271-0.064,0.548-0.1,0.82-0.162c2.526-0.571,5.131-1.004,7.164-2.771
		c0.739-0.642,1.214-1.588,1.809-2.396C22.616,81.54,21.676,81.197,20.736,80.854z"/>
	<path fill-rule="evenodd" clip-rule="evenodd" fill="#222222" stroke="#020202" stroke-width="0.5" stroke-miterlimit="10" d="
		M25.265,104.206c-0.521-1.365-1.529-1.919-2.608-2.331c-1.266-0.482-2.558-0.902-3.859-1.278c-0.264-0.076-0.699,0.076-0.914,0.275
		c-0.375,0.347-0.639,0.813-0.953,1.228c-1.806,2.376-3.876,2.893-6.94,1.514c0.633-0.81,1.194-1.582,1.818-2.301
		c0.282-0.325,0.724-0.508,1.028-0.818c0.481-0.491,1.725-0.56,1.052-1.734c-0.619-1.082-2.446-1.949-3.26-1.49
		c-0.341,0.192-0.565,0.642-0.772,1.013c-1.514,2.707-3.862,3.728-6.736,2.982c-1.001-0.259-1.15-0.724-0.603-1.517
		c0.453-0.658,0.912-1.312,1.398-1.945c1.143-1.49,1.153-1.584,0.023-3.18c1.126-0.692,2.369-0.779,3.537-0.462
		c3.034,0.824,6.031,1.787,9.041,2.704c0.718,0.219,1.424,0.475,2.205,0.736c0.394-2.027,0.764-3.936,1.15-5.922
		c1.786,0.799,3.687,3.76,3.525,5.277c-0.046,0.431-0.413,0.836-0.661,1.235c-0.413,0.665-0.331,1.215,0.352,1.624
		c0.75,0.448,1.343,0.147,1.37-0.732c0.037-1.197,0.041-2.398,0.003-3.597c-0.026-0.84,0.39-1.032,1.118-0.959
		c1.649,0.167,2.873,1.922,2.732,3.791c-0.086,1.139-0.032,2.291,0.001,3.436c0.067,2.271,0.188,4.542,0.237,6.813
		c0.029,1.324-0.332,1.671-1.668,1.795c-0.278,0.025-0.572,0.063-0.836,0c-0.403-0.096-0.988-0.176-1.122-0.447
		c-0.136-0.275,0.157-0.783,0.304-1.174c0.25-0.666,0.534-1.318,0.804-1.977c-0.77-0.009-1.542-0.054-2.31-0.012
		c-0.389,0.021-0.845,0.103-1.136,0.329c-0.347,0.271-0.792,0.743-0.766,1.098c0.067,0.925-0.242,1.524-0.99,2.011
		c-0.669,0.434-1.251,1.018-1.952,1.383c-0.537,0.28-1.2,0.453-1.803,0.442c-1.067-0.018-1.403-0.663-0.913-1.61
		c0.274-0.529,0.665-0.998,0.958-1.519c0.242-0.43,0.417-0.896,0.63-1.364c-1.592-0.462-2.553,0.074-3.125,1.527
		c-0.495,1.258-0.924,2.567-1.611,3.719c-0.955,1.599-2.537,2.079-4.383,1.488c0.205-0.701,0.374-1.425,0.63-2.116
		c0.277-0.748,0.699-1.446,0.937-2.203c0.16-0.51,0.336-1.233,0.099-1.595c-0.329-0.5-1.825-0.085-2.17,0.636
		c-0.353,0.737-0.505,1.58-0.685,2.39c-0.508,2.296-1.776,3.854-4.089,4.561c-0.937,0.286-1.327-0.064-1.377-0.873
		c-0.044-0.703,0.025-1.438,0.187-2.126c0.32-1.368,0.659-2.694-1.23-3.675c1.555-0.705,2.832-1.285,4.321-1.96
		c-0.696-0.717-1.329-1.293-1.865-1.948c-0.366-0.447-0.594-1.007-0.884-1.516c0.547-0.283,1.066-0.704,1.647-0.825
		c1.957-0.408,3.569,0.28,4.701,1.896c0.572,0.816,1.245,1.079,2.144,0.864c4.41-1.05,8.875-1.563,13.411-1.415
		C24.633,104.36,24.862,104.277,25.265,104.206z"/>
	<path fill-rule="evenodd" clip-rule="evenodd" fill="#222222" stroke="#020202" stroke-width="0.5" stroke-miterlimit="10" d="
		M23.858,117.429c-1.386-0.15-2.067,0.35-2.459,1.298c-0.274,0.664-0.484,1.356-0.78,2.01c-0.688,1.519-2.519,2.647-4.16,2.562
		c-0.986-0.052-1.138-0.786-1.041-1.546c0.075-0.585,0.376-1.139,0.483-1.724c0.064-0.354-0.05-0.742-0.084-1.114
		c-0.41,0.047-0.954-0.053-1.204,0.173c-0.547,0.496-1.067,1.099-1.38,1.762c-0.665,1.404-1.17,2.883-1.778,4.315
		c-0.533,1.254-1.394,2.131-2.847,2.243c-0.933,0.073-1.514-0.283-1.41-1.282c0.139-1.332,0.358-2.657,0.555-4.068
		c-0.766-0.345-1.286-0.041-1.502,0.803c-0.138,0.538-0.199,1.1-0.25,1.654c-0.244,2.685-1.795,4.294-4.62,4.714
		c-0.731-1.09-0.433-2.283,0.05-3.27c0.729-1.488,1.734-2.843,2.645-4.239c0.261-0.398,0.616-0.734,0.902-1.119
		c0.677-0.909,0.573-1.335-0.452-1.846c-0.548-0.273-1.111-0.516-1.719-0.795c1.764-1.998,4.827-2.15,6.919-0.336
		c0.826,0.716,1.463,0.798,2.308,0.225c0.295-0.199,0.639-0.328,0.962-0.485c1.771-0.861,1.772-0.861,0.742-2.547
		c-0.505-0.827-0.301-1.435,0.677-1.523c1.216-0.11,2.453-0.05,3.675,0.028c0.279,0.018,0.526,0.422,0.8,0.632
		c0.408,0.313,0.793,0.76,1.252,0.862c0.271,0.062,0.962-0.454,0.945-0.67c-0.038-0.479-0.38-0.947-0.644-1.393
		c-0.092-0.155-0.317-0.232-0.605-0.431c1.135-1.065,2.371-1.209,3.629-1.155c0.709,0.03,1.435,0.181,2.106,0.411
		c0.447,0.153,0.825,0.527,1.21,0.831c0.444,0.351,0.887,0.708,1.28,1.111c0.217,0.223,0.519,0.594,0.462,0.818
		c-0.654,2.616-1.276,5.248-2.115,7.808c-0.339,1.034-2.043,1.557-3.119,1.185c-0.313-0.108-0.73-0.604-0.703-0.882
		c0.096-0.977,0.337-1.943,0.578-2.9C23.336,118.879,23.593,118.232,23.858,117.429z"/>
	<path fill-rule="evenodd" clip-rule="evenodd" fill="#222222" stroke="#020202" stroke-width="0.5" stroke-miterlimit="10" d="
		M20.673,129.841c-0.204-0.611-0.377-1.194-0.594-1.761c-0.313-0.819-0.726-1.606-0.972-2.443c-0.28-0.951,0.404-1.644,1.379-1.506
		c2.267,0.319,3.589,1.594,3.968,3.851c0.112,0.667,0.192,1.342,0.26,2.016c0.099,0.978,0.729,1.514,1.6,1.404
		c0.929-0.117,0.706-0.948,0.63-1.632c-0.135-1.221-0.295-2.448-0.277-3.67c0.006-0.4,0.53-0.794,0.818-1.19
		c0.354,0.461,0.929,0.885,1.014,1.392c0.164,0.973,0.049,1.991,0.05,2.991c0,1.159-0.033,2.32,0.01,3.479
		c0.034,0.913-0.202,1.175-1.183,0.939c-3.178-0.762-6.365-1.511-9.582-2.078c-3.276-0.577-6.582-0.575-10.077,0.251
		c1.642,2.464,1.685,4.758-0.662,6.711c-1.041,0.866-2.201,1.065-3.715,0.312c0.692-2.14,1.395-4.309,2.222-6.863
		c-1.809,0.514-3.424,0.973-5.039,1.432c-0.068-0.116-0.136-0.232-0.205-0.349c0.381-0.34,0.73-0.729,1.15-1.012
		c2.465-1.653,5.324-2.067,8.159-2.556c0.982-0.169,1.956-0.387,2.93-0.6c0.729-0.159,0.99-0.591,0.743-1.324
		c-0.204-0.604-0.419-1.213-0.54-1.838c-0.182-0.945,0.327-1.386,1.227-1.075c1.181,0.407,2.099,0.949,2.169,2.481
		C16.245,129.076,18.187,130.186,20.673,129.841z"/>
</g>
<g id="Layer_5">
	<path fill-rule="evenodd" clip-rule="evenodd" fill="#222222" stroke="#020202" stroke-width="0.5" stroke-miterlimit="10" d="
		M111.246,129.744c0,1.104-0.895,2-2,2H34.014c-1.104,0-2-0.896-2-2V74.417c0-1.104,0.896-2,2-2h75.232c1.105,0,2,0.896,2,2V129.744
		z"/>
</g>
<g id="Layer_7">
	<g>
	</g>
	<g>
		<path fill="#FFFFFF" stroke="#FCFCFC" stroke-miterlimit="10" d="M52.693,83.106c0,0.62-0.121,1.143-0.362,1.567
			s-0.567,0.768-0.977,1.027c-0.409,0.26-0.882,0.45-1.417,0.57c-0.535,0.119-1.092,0.18-1.669,0.18h-1.339v4.005h-2.693v-10.62
			h4.095c0.609,0,1.179,0.058,1.709,0.173s0.992,0.3,1.386,0.555c0.394,0.255,0.703,0.59,0.929,1.005
			C52.58,81.983,52.693,82.496,52.693,83.106z M50,83.121c0-0.25-0.052-0.455-0.157-0.615c-0.105-0.159-0.247-0.285-0.425-0.375
			c-0.179-0.09-0.381-0.149-0.606-0.18c-0.226-0.03-0.459-0.045-0.701-0.045h-1.182v2.505h1.134c0.252,0,0.493-0.02,0.725-0.061
			c0.23-0.039,0.438-0.109,0.622-0.21c0.184-0.1,0.328-0.232,0.433-0.397S50,83.371,50,83.121z"/>
		<path fill="#FFFFFF" stroke="#FCFCFC" stroke-miterlimit="10" d="M63.427,88.198c-0.226,0.525-0.549,0.976-0.969,1.351
			s-0.927,0.667-1.52,0.877s-1.252,0.315-1.977,0.315c-0.735,0-1.396-0.105-1.984-0.315c-0.588-0.21-1.087-0.502-1.496-0.877
			c-0.41-0.375-0.725-0.825-0.945-1.351c-0.22-0.524-0.331-1.107-0.331-1.747v-6.615h2.677v6.405c0,0.29,0.04,0.564,0.118,0.825
			c0.079,0.26,0.2,0.492,0.362,0.697s0.378,0.367,0.646,0.487c0.268,0.12,0.59,0.18,0.968,0.18c0.378,0,0.701-0.06,0.969-0.18
			c0.268-0.12,0.486-0.282,0.654-0.487s0.289-0.438,0.362-0.697c0.073-0.261,0.11-0.535,0.11-0.825v-6.405h2.693v6.615
			C63.765,87.09,63.652,87.673,63.427,88.198z"/>
		<path fill="#FFFFFF" stroke="#FCFCFC" stroke-miterlimit="10" d="M74.632,87.366c0,0.58-0.121,1.067-0.362,1.462
			c-0.242,0.396-0.562,0.713-0.961,0.953s-0.853,0.412-1.362,0.518c-0.509,0.104-1.031,0.157-1.567,0.157h-4.441v-10.62h4.441
			c0.43,0,0.872,0.043,1.323,0.128c0.452,0.085,0.861,0.229,1.229,0.435s0.667,0.482,0.898,0.833
			c0.231,0.35,0.347,0.795,0.347,1.335c0,0.59-0.168,1.077-0.504,1.462c-0.336,0.386-0.777,0.663-1.323,0.833v0.029
			c0.315,0.051,0.611,0.143,0.89,0.278c0.278,0.135,0.52,0.307,0.725,0.518c0.205,0.21,0.368,0.455,0.488,0.734
			C74.572,86.701,74.632,87.016,74.632,87.366z M71.577,82.911c0-0.36-0.145-0.623-0.433-0.787
			c-0.289-0.165-0.716-0.248-1.284-0.248h-1.323v2.19h1.449c0.504,0,0.896-0.098,1.174-0.293
			C71.438,83.578,71.577,83.291,71.577,82.911z M71.939,87.125c0-0.439-0.173-0.745-0.52-0.915c-0.347-0.17-0.809-0.255-1.386-0.255
			h-1.496v2.43h1.512c0.209,0,0.427-0.017,0.653-0.052c0.226-0.035,0.431-0.098,0.614-0.188c0.184-0.091,0.333-0.218,0.449-0.383
			C71.881,87.598,71.939,87.385,71.939,87.125z"/>
		<path fill="#FFFFFF" stroke="#FCFCFC" stroke-miterlimit="10" d="M76.412,90.456v-10.62h2.709v8.385h4.316v2.235H76.412z"/>
		<path fill="#FFFFFF" stroke="#FCFCFC" stroke-miterlimit="10" d="M84.697,90.456v-10.62h2.709v10.62H84.697z"/>
		<path fill="#FFFFFF" stroke="#FCFCFC" stroke-miterlimit="10" d="M97.69,90.268c-0.724,0.315-1.56,0.473-2.504,0.473
			c-0.861,0-1.657-0.135-2.386-0.405c-0.73-0.27-1.363-0.652-1.898-1.147s-0.955-1.088-1.26-1.777
			c-0.305-0.69-0.457-1.45-0.457-2.28c0-0.85,0.154-1.62,0.465-2.31c0.31-0.69,0.737-1.277,1.283-1.763
			c0.547-0.485,1.187-0.857,1.922-1.117c0.734-0.261,1.527-0.391,2.379-0.391c0.787,0,1.561,0.133,2.322,0.397
			c0.762,0.266,1.379,0.652,1.851,1.163L97.58,82.85c-0.252-0.329-0.582-0.574-0.992-0.734c-0.409-0.16-0.829-0.24-1.26-0.24
			c-0.473,0-0.906,0.083-1.299,0.248c-0.395,0.164-0.732,0.393-1.017,0.682c-0.283,0.291-0.504,0.633-0.661,1.028
			c-0.158,0.395-0.236,0.827-0.236,1.297c0,0.48,0.078,0.92,0.236,1.32c0.157,0.4,0.375,0.742,0.653,1.027s0.612,0.508,1.001,0.668
			c0.388,0.159,0.812,0.239,1.275,0.239c0.535,0,1.002-0.1,1.401-0.3s0.72-0.46,0.961-0.78l1.874,1.681
			C99.023,89.526,98.415,89.953,97.69,90.268z"/>
		<path fill="#FFFFFF" stroke="#FCFCFC" stroke-miterlimit="10" d="M61.332,103.1c0,0.841-0.152,1.608-0.457,2.303
			c-0.305,0.695-0.727,1.29-1.268,1.785c-0.541,0.495-1.184,0.878-1.93,1.147c-0.746,0.271-1.554,0.405-2.425,0.405
			c-0.872,0-1.677-0.135-2.417-0.405c-0.741-0.27-1.381-0.652-1.922-1.147s-0.963-1.09-1.268-1.785
			c-0.305-0.694-0.457-1.462-0.457-2.303c0-0.85,0.152-1.617,0.457-2.302c0.304-0.686,0.727-1.268,1.268-1.748
			c0.541-0.479,1.181-0.85,1.922-1.109c0.74-0.261,1.546-0.391,2.417-0.391c0.871,0,1.68,0.13,2.425,0.391
			c0.746,0.26,1.389,0.63,1.93,1.109c0.541,0.48,0.963,1.062,1.268,1.748C61.18,101.483,61.332,102.25,61.332,103.1z M58.45,103.1
			c0-0.459-0.079-0.89-0.236-1.289c-0.158-0.4-0.375-0.743-0.654-1.028c-0.278-0.284-0.614-0.51-1.008-0.675
			s-0.827-0.247-1.299-0.247c-0.473,0-0.903,0.082-1.292,0.247c-0.389,0.165-0.725,0.391-1.008,0.675
			c-0.283,0.285-0.501,0.628-0.653,1.028c-0.152,0.399-0.229,0.83-0.229,1.289c0,0.48,0.079,0.923,0.236,1.328
			c0.157,0.405,0.375,0.752,0.654,1.042c0.278,0.29,0.611,0.518,1,0.683c0.388,0.165,0.819,0.248,1.292,0.248
			c0.472,0,0.903-0.083,1.292-0.248c0.388-0.165,0.725-0.393,1.008-0.683c0.284-0.29,0.504-0.637,0.662-1.042
			C58.371,104.023,58.45,103.581,58.45,103.1z"/>
		<path fill="#FFFFFF" stroke="#FCFCFC" stroke-miterlimit="10" d="M71.569,101.106c0,0.62-0.121,1.143-0.362,1.567
			s-0.567,0.768-0.977,1.027c-0.409,0.26-0.882,0.45-1.417,0.57c-0.535,0.119-1.092,0.18-1.669,0.18h-1.339v4.005h-2.693v-10.62
			h4.095c0.609,0,1.179,0.058,1.709,0.173s0.992,0.3,1.386,0.555c0.394,0.255,0.703,0.59,0.929,1.005
			C71.457,99.983,71.569,100.496,71.569,101.106z M68.876,101.121c0-0.25-0.052-0.455-0.157-0.615
			c-0.105-0.159-0.247-0.285-0.425-0.375c-0.179-0.09-0.381-0.149-0.606-0.18c-0.226-0.03-0.459-0.045-0.701-0.045h-1.182v2.505
			h1.134c0.252,0,0.493-0.02,0.725-0.061c0.23-0.039,0.438-0.109,0.622-0.21c0.184-0.1,0.328-0.232,0.433-0.397
			S68.876,101.371,68.876,101.121z"/>
		<path fill="#FFFFFF" stroke="#FCFCFC" stroke-miterlimit="10" d="M73.192,108.456v-10.62h7.497v2.16h-4.898v2.01h4.63v2.056h-4.63
			v2.204h5.182v2.19H73.192z"/>
		<path fill="#FFFFFF" stroke="#FCFCFC" stroke-miterlimit="10" d="M89.839,108.456l-4.488-6.945h-0.048l0.063,6.945h-2.615v-10.62
			h3.072l4.473,6.93h0.047l-0.062-6.93h2.614v10.62H89.839z"/>
		<path fill="#FFFFFF" stroke="#FCFCFC" stroke-miterlimit="10" d="M53.26,118.595c-0.231-0.279-0.533-0.502-0.905-0.667
			c-0.373-0.165-0.732-0.248-1.079-0.248c-0.179,0-0.36,0.016-0.543,0.045c-0.184,0.03-0.349,0.088-0.496,0.173
			s-0.271,0.195-0.37,0.33s-0.149,0.308-0.149,0.518c0,0.18,0.039,0.33,0.118,0.45c0.079,0.12,0.194,0.225,0.346,0.314
			s0.333,0.173,0.543,0.248s0.446,0.152,0.709,0.232c0.378,0.12,0.771,0.253,1.181,0.397s0.782,0.337,1.118,0.577
			s0.614,0.538,0.835,0.893c0.22,0.355,0.331,0.798,0.331,1.328c0,0.609-0.118,1.137-0.354,1.582s-0.554,0.812-0.953,1.103
			c-0.399,0.29-0.856,0.505-1.37,0.645c-0.515,0.141-1.045,0.21-1.591,0.21c-0.798,0-1.57-0.132-2.315-0.397
			c-0.746-0.265-1.365-0.642-1.858-1.132l1.764-1.71c0.272,0.32,0.632,0.587,1.079,0.802c0.446,0.216,0.89,0.323,1.331,0.323
			c0.199,0,0.394-0.021,0.583-0.061s0.354-0.104,0.496-0.194c0.142-0.091,0.254-0.21,0.339-0.36c0.084-0.15,0.126-0.33,0.126-0.54
			c0-0.2-0.053-0.37-0.158-0.51c-0.105-0.141-0.254-0.268-0.449-0.383s-0.436-0.22-0.725-0.314
			c-0.289-0.096-0.617-0.198-0.984-0.308c-0.357-0.11-0.706-0.24-1.047-0.391c-0.341-0.149-0.646-0.342-0.914-0.577
			c-0.268-0.235-0.483-0.52-0.646-0.855c-0.163-0.335-0.244-0.742-0.244-1.222c0-0.591,0.126-1.096,0.378-1.516
			s0.583-0.765,0.992-1.035c0.41-0.27,0.872-0.467,1.386-0.592c0.514-0.125,1.034-0.188,1.559-0.188c0.63,0,1.273,0.109,1.929,0.33
			c0.656,0.22,1.231,0.545,1.725,0.975L53.26,118.595z"/>
		<path fill="#FFFFFF" stroke="#FCFCFC" stroke-miterlimit="10" d="M65.135,119.106c0,0.62-0.121,1.143-0.362,1.567
			s-0.567,0.768-0.977,1.027c-0.409,0.26-0.882,0.45-1.417,0.57c-0.535,0.119-1.092,0.18-1.669,0.18h-1.339v4.005h-2.693v-10.62
			h4.095c0.609,0,1.179,0.058,1.709,0.173s0.992,0.3,1.386,0.555c0.394,0.255,0.703,0.59,0.929,1.005
			C65.022,117.983,65.135,118.496,65.135,119.106z M62.442,119.121c0-0.25-0.052-0.455-0.157-0.615
			c-0.105-0.159-0.247-0.285-0.425-0.375c-0.179-0.09-0.381-0.149-0.606-0.18c-0.226-0.03-0.459-0.045-0.701-0.045h-1.182v2.505
			h1.134c0.252,0,0.493-0.02,0.725-0.061c0.23-0.039,0.438-0.109,0.622-0.21c0.184-0.1,0.328-0.232,0.433-0.397
			S62.442,119.371,62.442,119.121z"/>
		<path fill="#FFFFFF" stroke="#FCFCFC" stroke-miterlimit="10" d="M73.373,126.456l-0.867-2.085H68.19l-0.819,2.085h-2.93
			l4.678-10.62h2.615l4.63,10.62H73.373z M70.38,118.67l-1.417,3.646h2.803L70.38,118.67z"/>
		<path fill="#FFFFFF" stroke="#FCFCFC" stroke-miterlimit="10" d="M84.996,126.268c-0.725,0.315-1.559,0.473-2.504,0.473
			c-0.861,0-1.657-0.135-2.386-0.405c-0.73-0.27-1.362-0.652-1.898-1.147s-0.956-1.088-1.26-1.777
			c-0.305-0.69-0.457-1.45-0.457-2.28c0-0.85,0.155-1.62,0.465-2.31c0.31-0.69,0.737-1.277,1.284-1.763
			c0.546-0.485,1.186-0.857,1.921-1.117c0.735-0.261,1.528-0.391,2.378-0.391c0.787,0,1.562,0.133,2.323,0.397
			c0.761,0.266,1.378,0.652,1.851,1.163l-1.826,1.739c-0.252-0.329-0.584-0.574-0.992-0.734c-0.41-0.16-0.83-0.24-1.261-0.24
			c-0.473,0-0.906,0.083-1.299,0.248c-0.394,0.164-0.732,0.393-1.016,0.682c-0.283,0.291-0.504,0.633-0.661,1.028
			c-0.158,0.395-0.236,0.827-0.236,1.297c0,0.48,0.079,0.92,0.236,1.32c0.157,0.4,0.375,0.742,0.653,1.027s0.612,0.508,1,0.668
			c0.388,0.159,0.813,0.239,1.275,0.239c0.536,0,1.004-0.1,1.402-0.3s0.719-0.46,0.961-0.78l1.874,1.681
			C86.33,125.526,85.72,125.953,84.996,126.268z"/>
		<path fill="#FFFFFF" stroke="#FCFCFC" stroke-miterlimit="10" d="M87.973,126.456v-10.62h7.497v2.16h-4.898v2.01h4.631v2.056
			h-4.631v2.204h5.182v2.19H87.973z"/>
	</g>
</g>
</svg>
