<?xml version="1.0" encoding="utf-8"?>
<!-- Generator: Adobe Illustrator 16.0.4, SVG Export Plug-In . SVG Version: 6.00 Build 0)  -->
<!DOCTYPE svg PUBLIC "-//W3C//DTD SVG 1.1//EN" "http://www.w3.org/Graphics/SVG/1.1/DTD/svg11.dtd">
<svg version="1.1" id="Layer_1" xmlns="http://www.w3.org/2000/svg" xmlns:xlink="http://www.w3.org/1999/xlink" x="0px" y="0px"
	 width="142.523px" height="158.865px" viewBox="0 0 142.523 158.865" enable-background="new 0 0 142.523 158.865"
	 xml:space="preserve">
<g id="Layer_6">
	<path fill="#292929" stroke="#020202" stroke-width="0.5" stroke-miterlimit="10" d="M77.021,139.151
		c0.696-0.584,1.166-1.064,1.716-1.422c0.795-0.516,1.605-1.053,2.484-1.375c0.938-0.344,1.613,0.111,1.541,1.168
		c-0.1,1.467-0.271,2.933-0.508,4.384c-0.171,1.043,0.002,1.332,1.042,1.181c0.468-0.066,0.924-0.241,1.377-0.393
		c1.02-0.34,1.373-0.819,0.74-1.928c-0.434-0.757-0.687-1.761-0.625-2.627c0.158-2.271,2.718-3.526,4.796-2.408
		c0.329,0.177,0.587,0.758,0.609,1.168c0.042,0.746-0.2,1.509-0.159,2.256c0.024,0.458,0.3,1.24,0.561,1.283
		c0.7,0.115,1.518,0.059,2.158-0.226c0.313-0.14,0.487-0.94,0.458-1.429c-0.034-0.575-0.4-1.123-0.538-1.703
		c-0.149-0.626-0.077-1.355,0.688-1.413c1.45-0.106,2.913-0.03,4.321-0.03c0.069,0.229,0.115,0.307,0.11,0.379
		c-0.044,0.601-0.098,1.2-0.147,1.801c0.656-0.053,1.315-0.079,1.966-0.17c0.268-0.037,0.576-0.15,0.761-0.336
		c2.196-2.196,4.961-1.791,7.897-1.69c-5.479,3.096-11.011,5.709-16.062,9.126c0.029,0.125,0.062,0.249,0.093,0.374
		c1.715,0.246,3.427,0.541,5.15,0.694c0.333,0.029,0.808-0.431,1.058-0.777c0.604-0.841,1.072-1.78,1.674-2.623
		c1.042-1.458,2.605-1.92,4.293-2.016c0.343-0.021,0.875,0.174,1.006,0.43c0.132,0.256-0.044,0.77-0.235,1.072
		c-0.469,0.74-1.087,1.389-1.528,2.142c-0.554,0.945-0.091,1.733,1.01,1.835c0.396,0.036,0.804,0.037,1.198-0.009
		c1.06-0.125,1.416-0.659,1.284-1.729c-0.106-0.867-0.202-1.746-0.188-2.619c0.031-1.943,1.363-3.496,3.248-3.947
		c0.783-0.188,1.339,0.109,1.463,0.824c0.159,0.92,0.095,1.875,0.158,2.812c0.051,0.729,0.151,1.453,0.229,2.18
		c0.761-0.139,1.548-0.197,2.275-0.434c1.032-0.336,1.16-1.131,0.953-2.128c-0.671-3.22,0.947-5.841,4.024-6.769
		c0.97-0.293,1.354,0.123,1.299,0.926c-0.07,0.979-0.318,1.955-0.572,2.908c-0.25,0.938-0.604,1.849-0.938,2.853
		c2.088-0.222,3.254-1.13,3.711-2.901c0.603-2.335,1.975-3.762,4.405-4.143c1.679-0.264,2.282,0.413,1.653,2.031
		c-0.376,0.966-0.851,1.897-1.349,2.81c-0.415,0.76-0.213,1.094,0.563,1.422c1.091,0.462,2.215,0.959,3.135,1.685
		c1.052,0.826,0.868,1.373-0.365,1.824c-2.978,1.092-5.101,0.531-7.178-1.822c-0.24-0.272-0.837-0.562-1.078-0.445
		c-0.658,0.314-1.217,0.843-1.813,1.286c0.252,0.327,0.443,0.746,0.771,0.965c0.524,0.353,1.209,0.485,1.69,0.878
		c0.355,0.289,0.693,0.855,0.668,1.275c-0.02,0.318-0.575,0.733-0.975,0.88c-1.332,0.485-2.667,0.273-3.975-0.195
		c-1.306-0.469-1.152-1.666-1.322-2.969c-3.665,1.186-7.204,2.333-10.43,4.261c0.015,0.146,0.027,0.29,0.041,0.436
		c1.629,0.166,3.256,0.43,4.89,0.477c4.131,0.119,8.211-0.425,12.229-1.329c5.333-1.2,10.639-2.521,15.958-3.782
		c0.461-0.108,0.935-0.171,1.561-0.014c-0.549,0.404-1.062,0.871-1.651,1.2c-0.553,0.309-1.192,0.456-1.781,0.704
		c-1.192,0.5-1.262,0.744-0.524,1.836c0.916,1.354,1.841,2.705,2.761,4.057c-2.637,1.785-5.816,0.28-6.343-2.945
		c-0.234-1.438-0.468-1.635-1.854-1.285c-0.872,0.221-1.71,0.578-2.758,0.941c0.736,1.153,1.379,2.1,1.958,3.084
		c0.532,0.908,1.532,2.016,0.649,2.883c-0.521,0.512-1.944,0.322-2.896,0.125c-1.662-0.344-2.468-1.608-2.832-3.219
		c-0.446-1.977-0.476-1.979-2.506-1.52c-0.971,0.22-1.934,0.472-2.897,0.72c-0.104,0.026-0.191,0.13-0.449,0.313
		c0.635,0.75,1.29,1.389,1.771,2.138c0.407,0.632,0.614,1.394,0.91,2.098c-0.75,0.256-1.49,0.685-2.253,0.729
		c-1.493,0.09-2.738-1.146-3.178-2.909c-0.418-1.675-1.25-2.252-2.938-2.042c-0.791,0.098-1.595,0.132-2.369,0.303
		c-1.112,0.245-1.142,0.531-0.427,1.405c0.775,0.946,1.606,1.896,2.14,2.98c0.598,1.212,0.235,1.624-1.128,1.759
		c-2.859,0.28-4.945-1.229-5.618-4.066c-0.476-2.01-0.681-2.139-2.742-2.221c-1.312-0.053-2.619-0.237-3.932-0.344
		c-0.417-0.035-0.839-0.006-1.545-0.006c0.359,0.615,0.597,1.039,0.851,1.451c0.605,0.98,1.3,1.918,1.808,2.946
		c0.398,0.806,0.083,1.44-0.85,1.748c-1.266,0.417-2.536,0.239-3.332-0.917c-0.823-1.195-1.497-2.543-1.977-3.914
		c-0.644-1.844-0.582-1.917-2.571-1.917c-1.827-0.001-3.653,0-5.863,0c0.587,0.889,0.992,1.489,1.385,2.102
		c0.601,0.938,1.243,1.854,1.773,2.83c0.48,0.888,0.058,1.418-0.857,1.681c-1.797,0.514-3.435,0.035-4.377-1.597
		c-0.668-1.155-1.126-2.469-1.466-3.769c-0.287-1.101-0.824-1.497-1.923-1.502c-3.665-0.013-4.13,0.424-4.13,4.107
		c0,1.359-0.024,2.721,0.009,4.079c0.019,0.806-0.298,1.188-1.116,1.188c-4.36-0.008-8.72-0.013-13.08,0.005
		c-0.764,0.003-0.947-0.38-0.938-1.05c0.02-1.681,0.013-3.359,0.001-5.041c-0.011-1.514-0.442-2.104-1.926-2.438
		c-1.126-0.253-2.277-0.391-3.42-0.572c-0.77-0.123-1.196,0.205-1.36,0.976c-0.234,1.094-0.477,2.188-0.795,3.259
		c-0.653,2.188-2.063,3.081-4.124,2.695c-0.87-0.162-1.361-0.641-0.958-1.512c0.649-1.404,1.388-2.771,2.136-4.13
		c0.559-1.015,0.469-1.282-0.682-1.295c-1.477-0.016-2.955,0.039-4.432,0.095c-0.905,0.033-1.368,0.459-1.249,1.447
		c0.077,0.631,0.046,1.28,0.006,1.918c-0.15,2.404-2.754,4.252-4.966,3.58c-0.929-0.281-1.258-0.82-0.894-1.706
		c0.317-0.772,0.708-1.518,1.076-2.27c0.292-0.597,0.602-1.187,1.077-2.121c-1.188,0-2.082-0.048-2.967,0.012
		c-1.351,0.089-2.696,0.28-4.046,0.375c-1.036,0.073-1.376,0.644-1.57,1.603c-0.438,2.17-1.647,3.703-3.948,4.145
		c-0.273,0.053-0.577,0.156-0.824,0.087c-0.67-0.188-1.55-0.284-1.895-0.751c-0.239-0.326,0.183-1.241,0.458-1.822
		c0.307-0.642,0.804-1.188,1.179-1.802c0.523-0.854,0.188-1.455-0.723-1.532c-1.672-0.143-3.314-0.419-4.567,1.387
		c-1.346,1.941-3.482,2.176-5.975,1.736c0.651-1.219,1.238-2.316,1.868-3.496c-0.937-0.785-2.013-1.029-3.132-0.843
		c-0.35,0.06-0.699,0.585-0.902,0.974c-1.137,2.172-2.773,3.467-5.353,3.299c-0.896-0.058-1.285-0.363-0.893-1.279
		c0.534-1.244,1.083-2.482,1.575-3.744c0.151-0.388,0.14-0.839,0.201-1.261c-0.527,0.013-1.139-0.14-1.558,0.079
		c-0.539,0.281-0.931,0.853-1.372,1.312c-1.941,2.021-4.682,2.597-7.262,1.324c0.534-0.625,0.951-1.276,1.522-1.74
		c0.833-0.678,1.818-1.166,2.663-1.831c0.99-0.779,0.875-1.554-0.28-2.078c-0.613-0.277-1.302-0.384-1.929-0.634
		c-0.557-0.222-1.075-0.536-1.61-0.81c0.048-0.137,0.097-0.272,0.146-0.409c0.514,0.088,1.04,0.132,1.539,0.271
		c5.766,1.617,11.499,3.361,17.3,4.836c4.029,1.024,8.146,1.047,12.202-0.098c0.485-0.138,0.954-0.343,1.758-0.637
		c-0.619-0.298-0.937-0.492-1.279-0.608c-2.271-0.771-4.558-1.493-6.815-2.3c-0.81-0.288-1.298-0.128-1.848,0.531
		c-1.472,1.766-3.727,2.359-5.485,1.557c-1.25-0.57-1.348-1.242-0.287-2.113c0.308-0.252,0.657-0.451,0.981-0.687
		c0.286-0.205,0.562-0.426,1.153-0.875c-1.021-0.726-1.849-1.431-2.795-1.897c-0.207-0.102-0.995,0.56-1.238,1.016
		c-1.504,2.822-4.683,3.398-7.328,1.181c1.522-2.298,4.137-2.937,6.612-4.108c-0.785-0.72-1.448-1.225-1.98-1.84
		c-0.62-0.72-1.208-1.492-1.662-2.322c-0.477-0.867-0.157-1.43,0.828-1.438c0.731-0.006,1.489,0.219,2.19,0.467
		c0.556,0.194,1.027,0.615,1.564,0.879c1.164,0.567,1.77,1.306,1.762,2.771c-0.012,2.229,1.618,3.528,4.379,3.616
		c-0.425-0.961-0.778-1.801-1.165-2.622c-0.491-1.042-1.057-2.052-1.505-3.112c-0.372-0.879,0.104-1.152,0.939-1.079
		c2.635,0.235,5.1,2.386,5.467,4.954c0.105,0.737-0.283,1.533-0.335,2.311c-0.034,0.502-0.044,1.295,0.24,1.472
		c0.667,0.418,1.516,0.545,2.291,0.789c0.095-0.39,0.288-0.783,0.265-1.164c-0.077-1.188-0.313-2.372-0.345-3.562
		c-0.03-1.201,0.701-1.621,1.831-1.181c1.985,0.772,3.188,2.513,3.199,4.634c0.002,0.439,0.062,0.893-0.017,1.317
		c-0.251,1.347,1.439,2.147,2.443,1.899c0.698-0.172,1.103-0.55,0.688-1.287c-0.429-0.765-0.958-1.473-1.375-2.241
		c-0.544-1.002-0.31-1.377,0.801-1.48c1.512-0.142,2.77,0.353,3.716,1.523c0.474,0.586,0.905,1.226,1.237,1.899
		c1.123,2.275,1.268,2.402,3.794,2.059c1.167-0.159,2.315-0.456,3.472-0.69c0.06-0.131,0.117-0.263,0.176-0.394
		c-0.769-0.825-1.479-1.713-2.313-2.463c-2.824-2.541-6.336-3.83-9.767-5.262c-1.06-0.441-2.106-0.912-3.121-1.482
		c2.804-0.491,5.444-0.211,7.865,1.384c0.402,0.265,0.9,0.382,1.354,0.567c0.085-0.476,0.094-0.983,0.282-1.412
		c0.134-0.307,0.487-0.682,0.783-0.719c0.786-0.102,1.596-0.043,2.396-0.035c1.814,0.016,2.4,1.076,1.493,2.693
		c-0.625,1.113-0.548,1.782,0.422,2.293c0.408,0.215,0.975,0.129,1.469,0.181c0.031-0.374,0.097-0.749,0.086-1.123
		c-0.013-0.519-0.051-1.039-0.129-1.552c-0.278-1.836,0.318-2.529,2.173-2.494c2.79,0.057,4.395,2.438,3.38,5.022
		c-0.732,1.869,0.271,2.886,2.988,2.751c-0.221-1.254-0.505-2.478-0.632-3.716c-0.083-0.812-0.017-1.662,0.129-2.468
		c0.153-0.848,0.795-1.141,1.532-0.7c0.982,0.586,1.909,1.272,2.823,1.965c0.366,0.278,0.637,0.685,0.952,1.033
		c0.131-0.012,0.263-0.022,0.395-0.034c0.086-0.736,0.226-1.474,0.247-2.212c0.047-1.637,0.022-1.64,1.694-1.642
		c3,0,5.999-0.002,8.999,0.002c1.99,0.002,2.188,0.175,2.589,2.16C76.696,138.114,76.831,138.485,77.021,139.151z"/>
	<path fill="#292929" stroke="#020202" stroke-width="0.5" stroke-miterlimit="10" d="M141.145,134.455
		c-0.584-0.505-1.116-1.099-1.771-1.485c-0.46-0.271-1.206-0.507-1.604-0.311c-0.392,0.191-0.762,0.988-0.69,1.451
		c0.207,1.369,0.632,2.707,0.979,4.055c0.354,1.359,0.031,1.739-1.328,1.438c-1.848-0.408-3.251-1.434-3.754-3.312
		c-0.282-1.056-0.412-2.197-0.354-3.286c0.071-1.379,0.012-1.562-1.415-1.74c-3.247-0.404-6.45-0.087-9.625,0.586
		c-1.873,0.396-3.717,0.93-5.587,1.346c-0.353,0.078-1.062-0.041-1.093-0.184c-0.111-0.504-0.192-1.393,0.057-1.533
		c1.335-0.761,1.199-2.065,1.425-3.24c0.499-2.598,2.364-4.121,4.893-3.942c0.38,0.027,0.75,0.168,1.402,0.321
		c-0.852,1.648-1.623,3.143-2.544,4.926c1.301,0,2.361,0.091,3.388-0.057c0.304-0.045,0.611-0.736,0.739-1.183
		c0.517-1.805,1.487-3.173,3.334-3.786c1.045-0.35,1.362-0.145,1.275,0.941c-0.047,0.584-0.239,1.169-0.441,1.727
		c-0.459,1.263-0.396,1.563,0.931,1.867c1.823,0.417,3.683,0.685,5.529,0.985c2.488,0.407,4.729,1.222,6.087,3.554
		c0.132,0.227,0.228,0.475,0.339,0.712C141.259,134.354,141.202,134.405,141.145,134.455z"/>
	<path fill="#292929" stroke="#020202" stroke-width="0.5" stroke-miterlimit="10" d="M139.949,118.49
		c-0.913,0.321-1.498,0.521-2.079,0.733c-1.198,0.437-1.302,0.812-0.492,1.786c1.944,2.341,3.73,5.952,4.04,8.164
		c-1.814,0.254-4.144-1.26-4.877-3.296c-0.291-0.807-0.423-1.705-0.444-2.564c-0.02-0.847-0.241-1.521-1.113-1.479
		c-0.298,0.015-0.726,0.795-0.803,1.272c-0.207,1.28-0.256,2.588-0.378,3.998c-2.188-0.51-3.535-1.812-4.198-3.791
		c-0.353-1.053-0.504-2.172-0.724-3.267c-0.201-0.997-1.557-2.055-2.528-1.946c-0.812,0.09-1.366,0.836-1.125,1.625
		c0.174,0.566,0.521,1.08,0.709,1.646c0.162,0.483,0.211,1.005,0.311,1.509c-0.111,0.094-0.224,0.186-0.335,0.278
		c-1.317-0.522-2.671-0.972-3.94-1.593c-1.062-0.521-1.411-1.575-1.496-2.707c-0.03-0.397,0.108-0.909-0.091-1.17
		c-0.323-0.424-0.904-0.987-1.297-0.933c-0.461,0.065-1.184,0.728-1.186,1.134c-0.005,1.139,0.328,2.272,0.478,3.416
		c0.065,0.52,0.011,1.055,0.011,1.604c-2.062-0.23-3.572-1.76-3.655-3.68c-0.075-1.756-0.028-3.519-0.009-5.277
		c0.005-0.352,0.119-0.708,0.216-1.053c0.354-1.272,0.312-2.666-0.116-3.898c-0.076-0.222-0.108-0.47-0.108-0.705
		c-0.005-3.84-0.035-7.681,0.016-11.52c0.022-1.661,0.673-2.217,2.395-2.324c0.806,1.191,0.223,2.464,0.216,3.706
		c-0.002,0.414,0.096,0.936,0.356,1.208c0.174,0.181,0.849,0.148,1.061-0.047c0.241-0.223,0.334-0.746,0.289-1.114
		c-0.323-2.634,0.919-4.674,2.361-6.728c0.999,0.652,1.231,1.539,1.229,2.539c-0.013,3.812,0.086,3.695,3.718,2.765
		c2.588-0.664,5.092-1.655,7.672-2.351c1.883-0.507,3.829-0.699,5.86,0.08c-1.875,2.797,0.885,3.815,1.934,5.521
		c-1.801,1.992-5.354,1.529-6.944-0.946c-1.457-2.266-1.64-2.321-4.153-1.293c-1.42,0.581-1.48,1.11-0.312,2.199
		c0.696,0.647,1.438,1.286,1.983,2.054c0.694,0.975,0.314,1.645-0.88,1.825c-2.282,0.344-3.956-0.521-5.264-2.722
		c-1.05-1.768-1.048-1.764-2.944-0.881c-1.594,0.741-3.194,1.467-4.787,2.213c-0.346,0.162-0.664,0.382-0.995,0.574
		c-0.005,0.125-0.011,0.25-0.016,0.373c1.083,0.305,2.147,0.727,3.251,0.887c2.247,0.326,4.517,0.494,6.773,0.759
		c1.542,0.182,3.071,0.503,4.617,0.591c0.771,0.044,1.624-0.167,2.334-0.492c1.009-0.461,1.882-1.215,2.887-1.685
		c0.538-0.252,1.278-0.345,1.843-0.191c0.595,0.162,1.086,0.702,1.622,1.077c-0.396,0.441-0.799,0.879-1.188,1.328
		c-0.395,0.457-1.004,0.895-1.075,1.4c-0.045,0.31,0.769,0.722,1.166,1.116c0.246,0.247,0.677,0.628,0.614,0.815
		c-0.454,1.391,0.218,2.488,0.782,3.636c0.3,0.606,0.604,1.224,0.793,1.869c0.422,1.435-0.187,2.06-1.67,1.778
		c-1.558-0.295-2.729-1.129-3.394-2.576c-0.551-1.197-0.96-2.462-1.563-3.629c-0.451-0.872-1.076-1.663-1.699-2.43
		c-0.187-0.229-0.693-0.424-0.928-0.326c-0.229,0.096-0.456,0.604-0.409,0.888c0.126,0.769,0.349,1.532,0.624,2.264
		c0.31,0.817,0.8,1.57,1.062,2.399c0.317,1.005-0.038,1.322-1.057,1.1c-2.726-0.598-4.368-2.439-4.749-5.326
		c-0.214-1.625-0.98-2.422-2.298-2.387c-1.142,0.031-1.599,0.682-1.161,1.755c0.226,0.55,0.656,1.019,0.861,1.572
		c0.193,0.524,0.214,1.112,0.312,1.675c-0.526,0.062-1.072,0.247-1.576,0.167c-1.76-0.28-3.329,0.688-3.68,2.407
		c-0.057,0.277-0.029,0.718,0.141,0.855c0.16,0.129,0.585,0.013,0.855-0.092c1.263-0.479,2.476-1.229,3.774-1.426
		c1.155-0.176,2.42,0.162,3.6,0.432c0.724,0.166,0.642,0.662,0.116,1.14c-1.332,1.211-1.241,1.523,0.354,2.442
		c1.121,0.646,2.088,0.785,3.322,0.142c1.893-0.986,3.925-1.435,5.897-0.076C139.04,117.547,139.34,117.915,139.949,118.49z
		 M121.928,111.315c-0.49-1.875-0.887-3.438-1.318-4.99c-0.057-0.203-0.27-0.397-0.458-0.522c-0.759-0.504-3.23-0.127-3.854,0.565
		c-0.575,0.642,0.369,4.465,1.217,4.594C118.947,111.181,120.408,111.205,121.928,111.315z"/>
	<path fill="#292929" stroke="#020202" stroke-width="0.5" stroke-miterlimit="10" d="M141.995,89.354
		c0.154,1.071-0.558,1.141-1.177,1.08c-2.416-0.229-4.824-0.523-7.236-0.795c-1.147-0.129-2.293-0.348-3.442-0.36
		c-1.673-0.021-2.131,0.63-1.767,2.25c0.053,0.232,0.106,0.467,0.164,0.7c0.2,0.836-0.226,1.14-0.972,1.041
		c-1.54-0.2-2.876-0.817-3.586-2.28c-0.537-1.107-0.854-2.325-1.415-3.418c-0.337-0.658-0.845-1.402-1.47-1.701
		c-1.097-0.524-1.797,0.081-1.827,1.305c-0.032,1.285-0.087,2.569-0.131,3.854c-0.145,0.064-0.289,0.13-0.434,0.193
		c-1.191-0.601-2.404-1.162-3.555-1.834c-0.213-0.125-0.223-0.693-0.229-1.06c-0.058-3.101-0.122-6.2-0.12-9.301
		c0.002-1.828-0.058-3.687,0.233-5.479c0.306-1.881,1.625-3.071,3.518-3.508c1.057-0.244,1.529,0.16,1.352,1.232
		c-0.143,0.859-0.45,1.693-0.688,2.537c-0.151,0.536-0.409,1.066-0.435,1.607c-0.024,0.541,0.034,1.461,0.312,1.569
		c0.651,0.255,1.462,0.192,2.188,0.105c0.166-0.02,0.338-0.646,0.372-1.009c0.119-1.228,0.079-2.479,0.287-3.688
		c0.261-1.514,1.235-2.553,2.613-3.229c0.88-0.433,1.398-0.144,1.551,0.765c0.076,0.454,0.049,0.953-0.056,1.403
		c-0.254,1.089-0.567,2.163-0.881,3.237c-0.198,0.68,0.041,0.942,0.732,1c2.036,0.168,2.97-0.91,2.429-2.858
		c-0.638-2.288,0.087-3.938,2.014-4.591c1.079-0.365,1.582-0.109,1.798,1.021c0.096,0.499,0.015,1.03,0.026,1.546
		c0.009,0.377,0.038,0.754,0.059,1.132c0.452-0.054,0.993,0.032,1.338-0.188c0.973-0.625,1.829-1.426,2.795-2.062
		c0.989-0.652,1.998-1.359,3.104-1.725c0.776-0.257,1.729,0.019,2.604,0.058c0.023,0.137,0.047,0.271,0.071,0.409
		c-0.516,0.414-1.029,0.83-1.547,1.241c-1.722,1.366-1.774,2.053-0.42,3.761c0.583,0.735,1.041,1.571,1.713,2.601
		c-2.692,0.143-4.499-1.201-6.53-1.904c-0.516,1.018,0.023,1.688,0.562,2.307c0.522,0.599,1.187,1.077,1.691,1.688
		c0.545,0.659,0.542,1.223-0.494,1.44c-1.981,0.417-3.726-0.112-5.258-1.339c-0.847-0.679-1.574-1.246-2.567-0.239
		c-1.037,1.05-1.16,1.844-0.348,3.078c0.286,0.435,0.646,0.834,0.852,1.302c0.161,0.372,0.134,0.824,0.19,1.241
		c-0.412,0.048-0.935,0.279-1.217,0.111c-1.082-0.645-2.216-1.289-3.093-2.17c-1.732-1.74-4.586-1.756-6.305,0.198
		c0.971,1.411,2.315,2.462,3.862,3.074c2.143,0.847,4.381,1.469,6.608,2.075c1.113,0.303,1.652-0.174,1.931-1.362
		c0.618-2.649,2.062-4.073,4.143-4.09c1.275-0.011,1.644,0.478,1.086,1.625c-0.361,0.744-0.929,1.388-1.378,2.092
		c-0.405,0.636-0.866,1.258-1.141,1.951c-0.242,0.612-0.188,1.276,0.618,1.571c0.782,0.287,1.353-0.006,1.687-0.69
		c0.239-0.494,0.26-1.101,0.518-1.581c0.67-1.249,1.376-2.482,2.161-3.66c0.197-0.297,0.748-0.357,1.136-0.527
		c0.17,0.427,0.521,0.875,0.474,1.274c-0.123,1.06-0.416,2.099-0.652,3.144c-0.043,0.191-0.143,0.373-0.214,0.56
		C139.323,89.375,139.51,89.632,141.995,89.354z"/>
	<path fill="#292929" stroke="#020202" stroke-width="0.5" stroke-miterlimit="10" d="M19.998,58.438
		c-0.386-0.677-0.706-1.168-0.956-1.693c-0.513-1.075-1.072-2.139-1.448-3.262c-0.3-0.895,0.125-1.481,1.159-1.438
		c3.228,0.135,4.985,2.145,4.895,5.27c-0.023,0.82,0.137,1.228,0.89,1.364c1.526,0.275,3.052,0.641,4.592,0.738
		c1.237,0.077,1.562-0.41,1.153-1.562c-0.411-1.153-0.973-2.269-1.611-3.313c-0.205-0.334-0.854-0.452-1.325-0.558
		c-1.119-0.252-2.316-0.276-3.366-0.689c-1.635-0.642-2.523-3.123-1.815-4.711c0.105-0.239,0.554-0.495,0.81-0.463
		c0.501,0.061,0.991,0.287,1.462,0.499c1.485,0.671,1.735,0.563,2.114-1.045c0.329-1.396,0.54-2.828,0.965-4.193
		c0.542-1.74,1.672-3.001,3.54-3.391c0.37-0.077,0.792,0.094,1.19,0.151c-0.065,0.446,0.001,0.98-0.226,1.32
		c-0.393,0.589-0.988,1.04-1.452,1.588c-0.174,0.207-0.214,0.526-0.315,0.794c0.083,0.095,0.165,0.191,0.247,0.287
		c0.688-0.323,1.381-0.637,2.063-0.972c0.887-0.435,1.831-1.214,2.771-0.492c0.984,0.758,0.195,1.799-0.067,2.652
		c-0.755,2.447-3.176,3.877-5.71,3.495c-0.261-0.04-0.534-0.006-1.199-0.006c1.024,2.039,1.941,3.865,2.858,5.69
		c0.117-0.023,0.234-0.046,0.351-0.07c0.174-0.513,0.341-1.029,0.522-1.539c0.255-0.712,0.411-1.495,0.822-2.104
		c0.287-0.426,0.934-0.842,1.41-0.832c0.379,0.008,0.861,0.608,1.094,1.053c1.076,2.057,0.354,3.949-0.656,5.792
		c-0.434,0.792-0.73,1.576,0.315,2.143c0.795,0.432,1.366,0.303,1.607-0.667c0.211-0.85,0.384-1.724,0.725-2.523
		c0.257-0.605,0.672-1.197,1.159-1.637c0.722-0.651,1.681-0.301,1.974,0.638c0.261,0.838,0.478,1.689,0.736,2.528
		c0.492,1.584,0.368,3.016-1.032,4.106c-0.514,0.399-0.528,0.774-0.054,1.163c0.708,0.58,1.394,1.213,2.176,1.675
		c1.267,0.748,2.604,1.375,4.156,2.181c-0.28-1.009-0.475-1.838-0.742-2.645c-1.257-3.788-2.503-7.582-3.842-11.341
		c-0.188-0.532-0.797-1.034-1.334-1.294c-0.777-0.378-1.692-0.463-2.507-0.784c-1.262-0.497-1.945-1.499-2.092-2.837
		c-0.082-0.745,0.175-1.267,1.055-1.218c0.359,0.02,0.724-0.006,1.078,0.04c1.932,0.25,1.931,0.256,1.933-1.627
		c0-0.08,0.004-0.16,0-0.24c-0.045-0.831,0.191-1.878-0.227-2.424c-0.327-0.427-1.466-0.233-2.244-0.316
		c-2.203-0.236-3.446-1.465-3.544-3.499c-0.062-1.278,0.505-1.851,1.794-1.753c0.476,0.036,0.944,0.16,1.412,0.264
		c1.408,0.314,1.56,0.178,1.616-1.297c0.043-1.153,0.059-2.319,0.255-3.45c0.113-0.653,0.56-1.25,0.98-2.132
		c1.089,1.823,1.315,3.505,1.392,5.207c0.119,2.671,0.142,5.348,0.271,8.018c0.038,0.775,0.305,1.54,0.466,2.309
		c0.119,0.043,0.239,0.087,0.359,0.131c0.335-0.432,0.809-0.814,0.982-1.303c0.604-1.691,1.108-3.418,1.639-5.135
		c0.286-0.927-0.412-1.273-1.021-1.665c-1.618-1.042-2.101-2.241-1.52-3.965c0.127-0.377,0.443-0.929,0.72-0.96
		c0.393-0.043,0.938,0.225,1.222,0.539c0.446,0.495,0.693,1.164,1.093,1.711c0.568,0.781,1.049,0.736,1.512-0.124
		c0.206-0.383,0.365-0.804,0.466-1.227c0.396-1.653,0.269-1.812-1.461-1.985c-1.512-0.152-2.212-0.741-2.273-2.255
		c-0.04-0.974,0.206-1.968,0.391-2.939c0.189-0.997,0.912-1.117,1.613-0.646c0.601,0.404,1.081,1.019,1.533,1.604
		c0.351,0.455,0.576,1.007,0.93,1.646c1.193-1.421,1.011-2.999,1.215-4.463c0.143-1.024,0.158-2.067,0.319-3.089
		c0.068-0.438,0.362-0.844,0.629-1.431c1.373,1.384,1.696,2.873,1.38,4.52c-0.33,1.723-0.739,3.43-1.112,5.145
		c-0.275,1.269,0.019,1.846,1.198,2.359c2.234,0.971,2.363,0.947,2.643-1.45c0.317-2.729,0.414-5.486,0.755-8.212
		c0.311-2.484,0.809-4.947,1.253-7.414c0.064-0.363,0.289-0.697,0.498-1.179c1.034,1.153,0.973,2.344,0.77,3.515
		c-0.212,1.217-0.615,2.403-0.794,3.623c-0.069,0.468,0.247,0.993,0.387,1.492C58,22,58.459,21.806,58.856,21.524
		c0.25-0.178,0.363-0.553,0.616-0.724c0.464-0.313,0.986-0.541,1.484-0.804c0.234,0.517,0.654,1.028,0.671,1.552
		c0.048,1.514-0.487,2.877-1.797,3.719c-2.255,1.448-3.213,3.427-2.945,6.093c0.121,1.205,0.021,2.431,0.307,3.75
		c0.27-0.358,0.611-0.681,0.794-1.078c1.106-2.391,2.179-4.798,3.258-7.202c0.589-1.312,1.118-2.652,1.766-3.935
		c0.644-1.276,1.4-2.496,2.212-3.926c-0.703-0.277-1.348-0.541-2-0.786c-1.641-0.616-2.617-1.747-2.861-3.517
		c-0.168-1.214,0.229-1.73,1.43-1.427c1.184,0.297,2.312,0.816,3.456,1.266c0.321,0.127,0.606,0.352,0.899,0.526
		c1.119-1.485,1.065-1.698-0.548-2.437c-2.271-1.038-2.952-2.065-2.749-4.095c0.089-0.888,0.509-1.258,1.362-0.888
		c0.828,0.359,1.626,0.787,2.741,1.334c0.089-1.296,0.195-2.379,0.232-3.464c0.073-2.173,1.101-3.744,2.936-4.368
		c0.334-0.114,0.696-0.147,1.05-0.196c0.76-0.105,1.065,0.205,1.086,1c0.052,2.011-0.806,3.627-2.039,5.11
		c-0.347,0.418-0.683,0.846-1.024,1.269c0.064,0.129,0.129,0.258,0.194,0.387c0.612-0.224,1.215-0.478,1.838-0.665
		c0.658-0.197,1.335-0.33,2.004-0.491C73.18,8.25,73.291,9.03,73.051,9.681c-0.545,1.479-1.754,2.359-3.211,2.848
		c-1.128,0.378-1.826,1.037-2.069,2.235c-0.174,0.857-0.565,1.669-0.75,2.525c-0.329,1.524,0.186,1.946,1.646,1.421
		c0.525-0.189,1.033-0.436,1.564-0.603c1.071-0.336,1.41-0.018,1.218,1.102c-0.485,2.811-1.852,4.07-5.085,4.477
		c-0.875,0.11-1.368,0.449-1.729,1.209c-2.248,4.753-4.065,9.649-4.806,14.881c-0.593,4.174-0.525,8.299,1.436,12.174
		c0.418,0.826,0.993,1.572,1.496,2.354c0.152-0.021,0.305-0.042,0.457-0.062c0.192-0.731,0.45-1.453,0.562-2.197
		c0.284-1.892,0.502-3.793,0.748-5.69c0.176-1.352-0.147-2.603-1.112-3.536c-1.76-1.703-1.617-3.82-1.446-5.938
		c0.072-0.896,0.779-1.189,1.467-0.65c0.738,0.579,1.328,1.356,1.945,2.077c0.495,0.578,1.06,1.493,1.793,0.797
		c0.683-0.648,0.961-1.736,1.329-2.667c0.021-0.054-0.735-0.489-1.167-0.638c-2.456-0.85-3.437-2.215-3.275-4.631
		c0.005-0.08-0.019-0.176,0.018-0.237c0.425-0.739,0.857-1.472,1.29-2.207c0.625,0.488,1.351,0.892,1.851,1.486
		c0.609,0.724,0.943,1.684,1.568,2.389c0.292,0.33,0.989,0.301,1.504,0.435c0.104-0.574,0.391-1.189,0.271-1.711
		c-0.202-0.877-0.765-1.668-0.994-2.543c-0.537-2.057,0.507-4.387,2.302-5.473c0.666-0.403,1.166-0.341,1.666,0.269
		c1.046,1.277,1.125,2.706,0.638,4.183c-0.222,0.672-0.594,1.313-0.99,1.908c-2.329,3.501-3.75,7.403-5.069,11.35
		c-0.129,0.383-0.113,0.813-0.188,1.404c2.188-0.348,4.155-1.742,6.329-0.398c-0.623,1.647-1.422,3.094-2.784,4.163
		c-1.343,1.056-2.304,1.131-3.712,0.124c-0.949-0.678-1.41-0.389-1.538,0.597c-0.168,1.287-0.201,2.591-0.315,4.24
		c0.912-0.364,1.5-0.627,2.105-0.833c0.966-0.328,1.928-0.77,2.924-0.885c1.079-0.125,1.399,0.42,1.206,1.495
		c-0.393,2.184-1.781,3.5-3.721,4.358c-1.972,0.873-2.059,1.125-1.129,3.114c1.303,2.786,4.163,4.286,7.104,3.667
		c0.417-0.088,0.775-0.454,1.161-0.692c-0.294-0.387-0.568-0.791-0.894-1.15c-0.12-0.133-0.357-0.166-0.545-0.229
		c-2.243-0.76-3.222-4.081-1.767-5.997c0.604-0.794,2.128-0.764,2.985,0.181c0.665,0.733,1.169,1.613,1.748,2.425
		c0.242,0.339,0.493,0.671,0.987,1.342c0.351-1.215,0.647-2.058,0.829-2.924c0.155-0.738,0.163-1.505,0.263-2.256
		c0.105-0.803-0.181-1.147-1.034-1.196c-2.775-0.16-3.955-1.188-4.272-3.873c-0.101-0.847,0.238-1.747,0.421-2.898
		c1.726,0.814,3.172,1.497,4.846,2.286c0.099-0.876,0.217-1.526,0.229-2.179c0.009-0.431-0.162-0.862-0.207-1.298
		c-0.205-1.956-0.774-3.322-3.201-3.487c-1.9-0.129-3.369-1.415-3.938-3.402c-0.372-1.302,0.184-1.933,1.53-1.644
		c0.97,0.208,1.9,0.595,2.849,0.906c1.347,0.442,1.802,0.166,1.822-1.245c0.017-1.159-0.02-2.189-1.52-2.726
		c-1.264-0.451-1.083-1.952-1.039-3.066c0.035-0.892,0.31-1.834,0.719-2.63c0.284-0.552,0.968-1.239,1.489-1.254
		c0.916-0.026,1.287,0.9,1.311,1.727c0.038,1.393-0.067,2.791-0.107,4.187c-0.035,1.237-0.083,2.476-0.077,3.713
		c0.001,0.279,0.197,0.558,0.399,1.086c0.45-0.512,0.781-0.823,1.031-1.19c0.358-0.527,0.621-1.122,0.992-1.639
		c0.467-0.651,0.917-0.632,1.375,0.088c1.38,2.169,0.826,4.872-1.518,6.81c-1.032,0.853-1.499,1.823-1.18,3.145
		c0.064,0.269,0.045,0.556,0.075,0.833c0.292,2.811,0.586,5.621,0.921,8.828c0.695-0.83,1.356-1.422,1.775-2.153
		c1.337-2.33,1.954-4.907,2.068-7.56c0.284-6.595-1.291-12.826-3.91-18.833c-0.477-1.093-1.091-1.485-2.335-1.113
		c-2.236,0.669-4.316-0.216-5.007-2.073c-0.214-0.575-0.231-1.38,0.021-1.906c0.127-0.262,1.067-0.165,1.64-0.165
		c0.311,0,0.624,0.207,0.931,0.196c0.565-0.019,1.436,0.059,1.622-0.246c0.299-0.486,0.235-1.263,0.155-1.896
		c-0.077-0.603-0.522-0.871-1.153-0.592c-2.853,1.262-4.849-0.469-6.939-1.863c-0.021-0.151-0.041-0.302-0.062-0.454
		c1.074-0.271,2.137-0.604,3.227-0.791c0.698-0.12,1.438-0.069,2.154-0.013c1.104,0.087,1.668-0.437,1.768-1.479
		c0.107-1.149,0.254-2.311,0.177-3.454c-0.033-0.48-0.495-1.096-0.936-1.356c-2.405-1.425-2.834-2.226-2.433-4.954
		c0.075-0.507,0.096-1.021,0.154-1.664c1.64,0.156,2.66,1.099,3.18,2.421c0.521,1.318,0.77,2.752,1.046,4.153
		c0.191,0.968,0.229,1.967,0.357,3.172c0.529-0.256,0.946-0.418,1.32-0.649c0.44-0.273,0.814-0.658,1.268-0.903
		c1.074-0.583,1.781-0.167,1.871,1.044c0.146,1.969-0.688,3.392-2.394,4.338c-0.454,0.252-1.095,0.401-1.308,0.786
		c-0.229,0.416-0.053,1.052-0.055,1.592c0.419-0.008,0.955,0.146,1.231-0.056c0.638-0.464,1.139-1.112,1.713-1.666
		c1.071-1.031,2.477-1.426,3.245-0.934c0.735,0.47,1.031,2.261,0.211,3.431c-0.723,1.031-1.785,1.919-2.877,2.568
		c-1.022,0.609-1.268,1.239-0.795,2.214c0.627,1.292,1.251,2.591,1.982,3.824c1.492,2.511,3.076,4.97,3.49,7.951
		c0.021,0.144,0.146,0.273,0.293,0.534c0.962-0.95,1.161-2.111,1.227-3.269c0.08-1.436-0.03-2.881,0.042-4.318
		c0.049-0.981-0.457-1.234-1.275-1.329c-0.668-0.077-1.347-0.173-1.985-0.374c-1.368-0.43-2.048-1.471-2.249-2.839
		c-0.199-1.347,0.477-1.925,1.758-1.459c0.631,0.229,1.202,0.623,1.801,0.94c0.405,0.215,0.812,0.427,1.484,0.78
		c0-2.515,0-4.76,0-7.062c1.162,0.078,1.354,0.816,1.399,1.514c0.208,3.183,0.355,6.369,0.526,9.554
		c0.07,1.314,0.137,2.629,0.217,3.942c0.054,0.877,0.495,1.066,1.3,0.779c1.666-0.593,2.182-1.924,1.66-4.043
		c-0.425-1.733-0.711-3.5-1.053-5.252c-0.022-0.115-0.043-0.263,0.008-0.355c0.3-0.547,0.621-1.083,0.937-1.624
		c0.239,0.488,0.618,0.955,0.695,1.468c0.241,1.615,0.357,3.248,0.55,4.871c0.055,0.467,0.198,0.924,0.365,1.671
		c0.64-0.405,1.181-0.674,1.628-1.053c0.518-0.436,0.921-1.002,1.428-1.453c0.888-0.795,1.691-0.578,2.143,0.533
		c0.531,1.312,0.086,3.081-1.074,3.883C98.723,30,98,30.189,97.386,30.553c-0.423,0.25-1.13,0.725-1.076,0.943
		c0.146,0.597,0.52,1.289,1.017,1.598c0.359,0.224,1.113,0.003,1.598-0.222c0.401-0.188,0.651-0.686,0.994-1.02
		c0.304-0.295,0.644-0.554,0.966-0.828c1.385,1.66,1.199,3.96-0.364,5.61c-1.376,1.453-1.297,2.871,0.509,4.612
		c0.664-1.689,1.537-3.208,1.832-4.833c0.38-2.089,0.344-4.261,0.386-6.399c0.016-0.788,0.227-1.013,0.975-0.865
		c1.626,0.322,2.334,1.455,1.872,3.074c-0.307,1.073-0.646,2.136-0.945,3.211c-0.051,0.178,0.024,0.391,0.067,0.873
		c0.881-0.222,1.685-0.475,2.508-0.615c0.794-0.135,1.608-0.153,2.414-0.223c-0.073,0.796-0.016,1.632-0.244,2.38
		c-0.683,2.23-1.35,2.578-3.698,2.572c-0.496-0.001-1.239,0.501-1.443,0.961c-0.48,1.084-0.729,2.276-1.024,3.436
		c-0.198,0.777,0.288,1.148,0.963,1.19c0.587,0.037,1.188-0.082,1.777-0.156c1.049-0.132,1.467,0.258,1.224,1.288
		c-0.174,0.731-0.427,1.463-0.767,2.132c-0.747,1.471-0.96,1.527-2.536,1.035c-1.856-0.581-2.646-0.177-2.984,1.716
		c-0.807,4.5-3.089,8.367-5.161,12.328c-0.148,0.282-0.305,0.562-0.433,0.854c-0.045,0.095-0.01,0.226-0.01,0.546
		c2.448-0.67,4.629-1.606,6.346-3.428c1.523-1.617,1.543-1.922,0.404-3.809c-0.915-1.515-0.715-3.34,0.472-4.795
		c0.551-0.673,1.292-1.021,1.997-0.646c0.544,0.289,1.074,0.975,1.211,1.576c0.209,0.915,0.108,1.909,0.073,2.866
		c-0.034,0.917,0.415,1.201,1.175,0.882c0.646-0.27,1.306-0.632,1.793-1.119c1.107-1.106,1.032-1.492-0.222-2.423
		c-1.496-1.111-2.082-2.887-1.522-4.553c0.315-0.937,0.967-1.518,1.927-1.542c0.973-0.024,1.148,0.825,1.359,1.567
		c0.208,0.728,0.38,1.472,0.66,2.172c0.328,0.819,0.948,1.125,1.449,0.219c0.824-1.491,1.515-3.059,2.177-4.63
		c0.058-0.135-0.477-0.692-0.812-0.788c-1.067-0.304-2.201-0.39-3.254-0.731c-1.604-0.52-2.554-1.72-2.979-3.341
		c-0.217-0.828-0.017-1.461,0.95-1.234c1.455,0.341,2.882,0.82,4.299,1.303c0.465,0.158,0.864,0.511,1.385,0.83
		c0.91-2.276-1.386-2.772-2.025-4.101c1.302-0.417,2.635-0.061,3.233,1.253c0.684,1.495,1.146,3.136,1.415,4.762
		c0.309,1.85,0.453,2.025,2.238,1.629c0.748-0.167,1.574,0.014,2.365,0.036c-0.091,0.798-0.027,1.655-0.304,2.383
		c-0.671,1.771-2.221,2.347-3.951,2.708c-0.707,0.147-1.507,0.552-1.952,1.095c-0.776,0.945-1.319,2.083-1.942,3.151
		c-0.377,0.646-0.158,1.158,0.554,1.214c1.058,0.083,2.13,0.054,3.188-0.022c0.671-0.049,1.323-0.306,1.993-0.407
		c0.928-0.139,1.063-0.632,0.827-1.452c-0.599-2.062-0.596-2.16,1.167-3.366c0.912-0.624,1.923-1.144,2.954-1.542
		c1.118-0.433,1.615-0.059,1.513,1.159c-0.068,0.797-0.379,1.609-0.741,2.335c-0.435,0.874-1.038,1.664-1.767,2.798
		c0.86-0.039,1.388-0.036,1.907-0.09c2.942-0.306,5.775-0.07,8.181,1.875c2.151,1.74,3.005,4.134,3.267,6.808
		c-2.386,0.344-4.554-0.873-4.915-2.828c-0.13-0.706,0.063-1.492,0.209-2.222c0.144-0.712,0.275-1.46-0.515-1.753
		c-0.524-0.193-1.39-0.257-1.736,0.044c-0.521,0.454-0.967,1.268-0.991,1.944c-0.021,0.639,0.557,1.291,0.844,1.949
		c0.214,0.492,0.385,1.002,0.586,1.531c-2.367,0.393-4.636-1.113-5.23-3.347c-0.052-0.192-0.066-0.394-0.108-0.589
		c-0.411-1.896-1.652-2.376-3.212-1.143c-0.312,0.246-0.476,1.008-0.344,1.414c0.229,0.701,0.754,1.303,1.133,1.958
		c0.507,0.876,0.991,1.765,1.631,2.906c-2.54-0.123-4.453-0.86-5.816-2.53c-0.393-0.482-0.208-1.525-0.117-2.291
		c0.147-1.253-0.214-1.623-1.457-1.292c-1.806,0.48-1.954,0.82-1.007,2.453c0.521,0.898,1.137,1.745,1.62,2.663
		c0.359,0.684,0.575,1.441,0.979,2.491c-1.635-0.678-2.938-1.165-4.193-1.753c-1.245-0.582-2.078-1.557-2.559-2.879
		c-0.164-0.453-0.772-1.156-0.996-1.094c-0.596,0.168-1.206,0.605-1.575,1.108c-0.156,0.213,0.183,0.935,0.463,1.296
		c0.962,1.243,2.31,2.236,2.491,4.105c-1.771,0.543-3.559,0.641-5.249-0.031c-0.58-0.229-1.011-1.091-1.299-1.755
		c-0.737-1.7-1.051-1.901-2.519-1.246c-1.395,0.623-1.486,0.989-0.671,2.633c0.069,0.139,0.104,0.294,0.218,0.619
		c-0.443,0.05-0.811,0.134-1.175,0.128c-4.074-0.066-8.183,0.137-12.207-0.348c-1.91-0.229-3.779-0.348-5.685-0.4
		c-0.468-0.013-0.992-0.461-1.364-0.834c-0.893-0.896-1.315-0.923-1.895,0.155c-0.479,0.896-1.169,1.21-2.146,1.208
		c-11.439-0.013-22.878-0.012-34.317,0.002c-0.725,0.002-1.275-0.08-1.313-0.967c-0.009-0.19-0.105-0.389-0.199-0.562
		c-0.666-1.225-1.66-2.223-3.044-2.238c-1.38-0.016-1.845,1.307-2.108,2.429c-0.249,1.061-0.854,1.479-1.819,1.507
		c-1.387,0.037-2.774,0.01-4.162,0.01c-0.05-0.131-0.1-0.26-0.149-0.391c0.604-0.523,1.203-1.053,1.811-1.572
		c0.938-0.803,1.95-1.533,2.803-2.42c0.726-0.754,0.542-1.178-0.454-1.558c-1.749-0.668-2.582-0.336-3.371,1.377
		c-0.958,2.081-2.032,4.038-4.58,4.489c-0.352,0.062-0.71,0.098-1.068,0.115c-0.71,0.033-0.884-0.309-0.755-0.984
		c0.373-1.947,1.275-3.601,2.646-5.015c0.244-0.252,0.481-0.51,0.72-0.761c-1.066-1.12-2.309-0.896-2.824,0.466
		c-0.31,0.819-0.478,1.696-0.828,2.497c-0.817,1.873-2.578,2.91-4.59,2.873c-0.831-0.015-1.159-0.359-0.838-1.105
		c0.501-1.164,1.057-2.31,1.659-3.424c0.373-0.689,0.876-1.307,1.322-1.958c-1.629-1.05-2.976-0.614-3.551,0.952
		c-0.369,1.005-0.784,2.021-1.362,2.914c-0.976,1.504-2.189,1.824-4.214,1.143c0.459-0.926,0.942-1.801,1.333-2.715
		c0.28-0.66,0.438-1.372,0.649-2.061c-0.81-0.011-1.631-0.1-2.424,0.012c-0.27,0.037-0.594,0.551-0.671,0.896
		c-0.12,0.535-0.018,1.115-0.068,1.672c-0.168,1.885-2.225,3.642-4.017,3.333c-0.307-0.054-0.754-0.753-0.718-1.112
		c0.303-3.062,1.715-5.464,4.729-6.461c1.913-0.631,3.963-0.847,5.954-1.243C18.715,58.658,19.253,58.571,19.998,58.438z
		 M54.622,40.577c0.053-0.922,0.064-1.394,0.109-1.862c0.164-1.694-0.114-2.05-1.758-2.269c-1.325-0.177-2.375-0.679-2.627-2.18
		c-0.127-0.756-0.606-0.839-1.081-0.321c-0.506,0.553-0.995,1.161-1.332,1.825c-2.203,4.335-2.777,9.046-2.982,13.81
		c-0.055,1.25,0.264,2.533,0.555,3.767c0.077,0.325,0.712,0.764,1.056,0.735c1.255-0.104,2.49-0.431,3.743-0.577
		c0.646-0.075,0.835-0.341,0.747-0.927c-0.156-1.031-0.875-1.527-1.734-1.971c-2.474-1.276-3.396-3.609-2.483-6.018
		c0.343-0.904,0.904-1.155,1.775-0.805c1.552,0.622,2.638,1.709,2.969,3.355c0.238,1.19,0.258,2.424,0.375,3.639
		c0.097,0.051,0.193,0.102,0.292,0.152c0.299-0.496,0.659-0.965,0.883-1.493c0.375-0.889,0.912-0.957,1.347-0.188
		c0.521,0.919,0.849,1.95,1.231,2.944c0.435,1.128,0.187,1.903-1.087,2.289c-0.914,0.276-1.012,0.935-0.438,1.679
		c0.392,0.505,0.782,1.012,1.194,1.5c1.753,2.078,3.497,4.164,5.279,6.215c0.895,1.028,1.956,1.716,3.684,1.134
		c-4.711-6.669-8.423-13.646-8.824-22.195c-1.391,1.132-2.224,0.653-3.092-0.076c-0.605-0.509-1.374-0.82-2.007-1.301
		c-0.599-0.454-1.191-0.954-1.649-1.541c-0.543-0.696-0.256-1.339,0.609-1.246c0.91,0.098,1.785,0.551,2.664,0.88
		C52.827,39.825,53.6,40.161,54.622,40.577z M96.25,52.968c0.042,0.129,0.085,0.258,0.128,0.388
		c-0.677,0.829-1.341,1.669-2.033,2.483c-0.771,0.905-1.716,1.219-2.902,0.896c-0.433-0.118-1.027-0.155-1.373,0.058
		c-0.381,0.235-0.578,0.79-0.794,1.236c-0.022,0.047,0.356,0.379,0.587,0.443c1.421,0.391,2.846,0.775,4.284,1.086
		c0.348,0.074,0.987-0.017,1.097-0.231c0.681-1.35,1.637-2.725,1.748-4.151c0.118-1.511,0.894-2.729,1.104-4.104
		c0.348-2.259,0.529-4.57,0.504-6.855c-0.042-3.85-1.479-7.317-3.422-10.582c-0.24-0.402-0.651-0.702-1.263-1.342
		c-0.072,2.037-1.229,2.89-2.346,3.827c-0.683,0.573-1.173,1.377-1.881,2.239c2.032,0.704,3.558-1.362,5.298-0.148
		c-1.23,2.208-2.382,4.367-5.072,4.989c-0.219,0.05-0.508,0.184-0.59,0.36c-0.63,1.349-1.572,2.624-1.039,4.151
		c0.658,0.407,1.185,0.93,1.764,1.386c0.284,0.224,0.658,0.372,1.014,0.438c0.074,0.014,0.292-0.482,0.358-0.764
		c0.2-0.853,0.296-1.734,0.545-2.571c0.52-1.751,1.646-2.92,3.511-3.171c0.301-0.04,0.865,0.267,0.957,0.534
		c1.111,3.229-0.395,5.91-3.637,6.58c-0.078,0.016-0.16,0.015-0.235,0.038c-0.968,0.298-0.891,1.085-0.892,1.858
		c-0.001,0.924,0.671,0.698,1.188,0.732C93.99,52.84,95.119,52.902,96.25,52.968z M80.141,63.691
		c0.145,0.094,0.289,0.188,0.434,0.282c3.636-3.058,7.346-6.049,9.455-10.851c-1.493,0.063-2.162-0.59-2.38-1.845
		c-0.051-0.293-0.617-0.496-0.946-0.741c-0.177,0.312-0.482,0.615-0.508,0.938c-0.15,2.051-0.887,3.88-2.013,5.567
		c-0.908,1.362-1.896,2.675-2.766,4.061C80.908,61.913,80.561,62.824,80.141,63.691z M48.559,60.951
		c-0.077,0.096-0.154,0.189-0.229,0.284c0.916,2.137,2.008,4.161,4.037,5.478c0.353,0.229,1.146,0.361,1.335,0.16
		c0.959-1.018,2.094-1.533,3.442-1.781c0.351-0.064,0.814-0.557,0.869-0.908c0.067-0.439-0.11-1.067-0.422-1.359
		c-0.196-0.186-0.917-0.034-1.252,0.189c-1.289,0.862-2.561,0.794-3.847,0.09c-0.771-0.421-1.491-0.931-2.258-1.359
		C49.697,61.443,49.119,61.212,48.559,60.951z M46.034,54.794c-0.342,2.28,1.111,4.877,2.641,5.146
		c2.323,0.409,4.637-0.454,4.972-1.815C51.142,57.03,48.647,55.938,46.034,54.794z M84.511,63.091
		c0.036,0.184,0.072,0.368,0.109,0.552c1.84,1.104,3.726,2.166,5.995,1.351c1.33-0.479,1.978-1.586,2.164-2.861
		c-2.036,0-3.962-0.094-5.869,0.043C86.093,62.234,85.31,62.771,84.511,63.091z"/>
	<path fill="#292929" stroke="#020202" stroke-width="0.5" stroke-miterlimit="10" d="M1.716,90.354
		c0.6-0.26,1.225-0.477,1.792-0.795c0.358-0.201,0.631-0.554,0.943-0.839c-0.28-0.247-0.525-0.563-0.848-0.733
		c-1.47-0.774-1.866-1.547-1.57-3.201c0.034-0.196,0.037-0.402,0.099-0.59c0.176-0.54,0.38-1.53,0.562-1.528
		c0.704,0.009,1.529,0.167,2.082,0.577c1.371,1.017,1.278,2.673,1.434,4.16c0.147,1.426,0.812,1.886,2.091,1.298
		c0.627-0.288,0.853-0.729,0.52-1.345c-0.322-0.592-0.698-1.158-1.083-1.715c-0.432-0.623-1.005-1.172-1.317-1.845
		c-0.26-0.558-0.231-1.249-0.331-1.881c0.682,0.015,1.386-0.069,2.037,0.077c0.476,0.107,0.897,0.5,1.317,0.802
		c1.56,1.124,1.853,1.126,3.297-0.172c0.742-0.667,1.443-1.381,2.17-2.067c0.468-0.441,0.83-0.874,0.261-1.514
		c-0.52-0.583-1.097-0.765-1.812-0.424c-0.07,0.034-0.146,0.077-0.196,0.135c-2.43,2.748-5.408,1.848-8.455,1.33
		c0.517-2.502,3.461-2.391,4.604-4.646c-0.824,0.233-1.354,0.387-1.884,0.533c-1.258,0.348-2.5,0.87-3.78,0.99
		c-1.35,0.127-1.634-0.378-1.007-1.582c0.47-0.902,1.126-1.73,1.812-2.49c0.7-0.776,0.728-1.441,0.046-2.201
		c-0.479-0.532-0.987-1.053-1.366-1.652c-0.423-0.669-0.23-1.287,0.643-1.117c0.942,0.183,1.943,0.481,2.715,1.021
		c1.069,0.747,1.94,1.775,2.914,2.664c0.321,0.295,0.667,0.582,1.05,0.787c0.953,0.514,1.433,0.255,1.516-0.817
		c0.052-0.677-0.014-1.361,0.035-2.038c0.062-0.877,0.438-1.265,1.427-1.027c2.189,0.524,2.793,1.515,2.09,3.639
		c-0.162,0.488-0.355,0.987-0.395,1.492c-0.146,1.91,0.838,2.803,3.017,2.629c-0.112-0.461-0.256-0.894-0.32-1.337
		c-0.202-1.373-0.401-2.747-0.547-4.126c-0.082-0.78,0.286-1.068,1.102-0.898c2.021,0.424,3.345,2.141,3.446,4.6
		c0.03,0.759-0.096,1.541,0.058,2.271c0.076,0.363,0.609,0.853,0.953,0.867c0.29,0.013,0.881-0.599,0.858-0.899
		c-0.07-0.982-0.39-1.944-0.558-2.925c-0.154-0.898-0.258-1.81-0.341-2.718c-0.059-0.629,0.288-0.833,0.896-0.774
		c2.271,0.221,4.028,1.508,4.352,3.795c0.382,2.71,0.744,5.533,0.361,8.2C28.15,84.099,28,85.8,28.035,87.583
		c0.043,2.252-1.489,3.902-3.628,4.26c-0.74,0.123-1.318-0.066-1.439-0.859c-0.154-1.012-0.32-2.041-0.271-3.053
		c0.045-0.947-0.217-1.147-1.084-0.902c-1.541,0.435-2.595,1.185-2.691,2.988c-0.05,0.93-0.315,1.949-0.806,2.725
		c-0.449,0.708-1.254,1.354-2.042,1.646c-1.356,0.499-2.188-0.338-1.979-1.745c0.046-0.314,0.022-0.641,0.058-0.957
		c0.106-0.938-0.295-1.363-1.234-1.227c-1.854,0.271-3.699,0.6-5.558,0.829c-1.894,0.233-3.795,0.358-5.571-0.521
		C1.763,90.628,1.74,90.492,1.716,90.354z M20.736,80.854c-1.115,0.064-1.708,0.469-2.309,1.379
		c-0.496,0.752-1.452,1.317-2.324,1.676c-0.897,0.367-1.941,0.373-2.918,0.559c-1.162,0.221-1.114,1.047-0.951,1.937
		c0.171,0.932,0.781,0.982,1.528,0.808c0.271-0.064,0.548-0.1,0.82-0.162c2.525-0.57,5.131-1.004,7.164-2.771
		c0.738-0.643,1.214-1.589,1.809-2.396C22.616,81.54,21.676,81.197,20.736,80.854z"/>
	<path fill="#292929" stroke="#020202" stroke-width="0.5" stroke-miterlimit="10" d="M25.265,104.206
		c-0.521-1.365-1.529-1.919-2.607-2.331c-1.267-0.481-2.559-0.901-3.859-1.278c-0.264-0.076-0.699,0.076-0.914,0.275
		c-0.375,0.347-0.639,0.812-0.953,1.229c-1.806,2.375-3.876,2.893-6.939,1.514c0.633-0.811,1.193-1.582,1.817-2.301
		c0.282-0.325,0.725-0.509,1.028-0.818c0.48-0.491,1.725-0.561,1.052-1.734c-0.619-1.082-2.446-1.949-3.26-1.49
		c-0.341,0.192-0.565,0.643-0.772,1.014c-1.514,2.707-3.861,3.728-6.735,2.982c-1.001-0.26-1.15-0.725-0.604-1.518
		c0.453-0.658,0.912-1.312,1.398-1.945c1.143-1.49,1.152-1.584,0.022-3.18c1.126-0.691,2.369-0.779,3.537-0.462
		c3.034,0.823,6.031,1.787,9.041,2.704c0.718,0.219,1.424,0.475,2.205,0.736c0.395-2.027,0.764-3.937,1.15-5.922
		c1.786,0.799,3.687,3.76,3.524,5.276c-0.046,0.431-0.413,0.836-0.661,1.235c-0.412,0.664-0.331,1.215,0.353,1.623
		c0.75,0.449,1.343,0.147,1.37-0.731c0.037-1.197,0.041-2.397,0.003-3.597c-0.026-0.84,0.39-1.032,1.118-0.959
		c1.648,0.167,2.873,1.922,2.731,3.791c-0.086,1.139-0.032,2.291,0.001,3.436c0.067,2.271,0.188,4.542,0.237,6.812
		c0.029,1.324-0.332,1.672-1.668,1.796c-0.278,0.024-0.572,0.062-0.836,0c-0.403-0.097-0.988-0.177-1.122-0.447
		c-0.136-0.274,0.157-0.783,0.304-1.174c0.25-0.666,0.534-1.318,0.805-1.978c-0.771-0.009-1.543-0.054-2.311-0.012
		c-0.389,0.021-0.845,0.104-1.136,0.329c-0.348,0.271-0.792,0.743-0.767,1.099c0.067,0.924-0.241,1.523-0.989,2.01
		c-0.669,0.435-1.251,1.019-1.952,1.384c-0.537,0.28-1.2,0.452-1.803,0.442c-1.067-0.019-1.403-0.664-0.913-1.61
		c0.273-0.529,0.665-0.998,0.958-1.52c0.241-0.43,0.417-0.896,0.63-1.364c-1.592-0.461-2.554,0.074-3.125,1.527
		c-0.495,1.258-0.924,2.567-1.611,3.719c-0.955,1.6-2.537,2.08-4.383,1.488c0.205-0.701,0.374-1.425,0.63-2.115
		c0.277-0.748,0.699-1.446,0.937-2.203c0.16-0.511,0.337-1.233,0.1-1.596c-0.329-0.5-1.825-0.085-2.17,0.637
		c-0.354,0.736-0.505,1.58-0.686,2.39c-0.508,2.296-1.775,3.854-4.089,4.562c-0.937,0.285-1.327-0.064-1.377-0.873
		c-0.044-0.703,0.025-1.438,0.188-2.127c0.319-1.367,0.658-2.693-1.23-3.675c1.555-0.705,2.832-1.285,4.321-1.96
		c-0.696-0.717-1.329-1.293-1.865-1.947c-0.366-0.447-0.594-1.008-0.884-1.517c0.547-0.283,1.065-0.704,1.646-0.825
		c1.957-0.408,3.569,0.28,4.701,1.896c0.572,0.815,1.245,1.078,2.145,0.863c4.41-1.05,8.875-1.562,13.411-1.414
		C24.633,104.36,24.862,104.276,25.265,104.206z"/>
	<path fill="#292929" stroke="#020202" stroke-width="0.5" stroke-miterlimit="10" d="M23.858,117.429
		c-1.386-0.149-2.066,0.351-2.459,1.299c-0.273,0.664-0.483,1.355-0.779,2.01c-0.688,1.519-2.52,2.646-4.16,2.562
		c-0.986-0.052-1.139-0.786-1.041-1.546c0.075-0.585,0.376-1.139,0.482-1.724c0.064-0.354-0.05-0.742-0.084-1.114
		c-0.409,0.047-0.954-0.053-1.204,0.173c-0.547,0.496-1.066,1.099-1.38,1.763c-0.665,1.403-1.17,2.883-1.777,4.314
		c-0.533,1.254-1.395,2.131-2.848,2.243c-0.933,0.073-1.514-0.283-1.409-1.282c0.139-1.332,0.357-2.657,0.555-4.068
		c-0.767-0.345-1.286-0.041-1.502,0.803c-0.139,0.539-0.199,1.101-0.25,1.654c-0.244,2.686-1.795,4.295-4.62,4.715
		c-0.731-1.09-0.433-2.283,0.05-3.271c0.729-1.488,1.734-2.843,2.646-4.239c0.261-0.397,0.615-0.734,0.901-1.119
		c0.677-0.908,0.573-1.334-0.452-1.846c-0.548-0.273-1.11-0.516-1.719-0.795c1.764-1.998,4.827-2.15,6.919-0.336
		c0.826,0.716,1.463,0.798,2.309,0.225c0.295-0.199,0.639-0.328,0.962-0.484c1.771-0.861,1.771-0.861,0.741-2.547
		c-0.505-0.827-0.301-1.436,0.678-1.523c1.216-0.109,2.453-0.05,3.675,0.028c0.279,0.018,0.526,0.422,0.8,0.632
		c0.408,0.312,0.793,0.76,1.252,0.861c0.271,0.062,0.962-0.453,0.945-0.67c-0.038-0.479-0.38-0.946-0.645-1.393
		c-0.092-0.154-0.316-0.232-0.604-0.431c1.135-1.065,2.371-1.209,3.629-1.155c0.709,0.03,1.435,0.182,2.106,0.411
		c0.446,0.153,0.824,0.526,1.21,0.831c0.443,0.351,0.887,0.708,1.279,1.111c0.217,0.223,0.52,0.594,0.462,0.817
		c-0.653,2.616-1.275,5.248-2.114,7.808c-0.34,1.035-2.043,1.558-3.119,1.186c-0.313-0.107-0.73-0.604-0.703-0.882
		c0.096-0.978,0.337-1.943,0.578-2.9C23.336,118.879,23.593,118.231,23.858,117.429z"/>
	<path fill="#292929" stroke="#020202" stroke-width="0.5" stroke-miterlimit="10" d="M20.673,129.841
		c-0.204-0.611-0.377-1.193-0.594-1.761c-0.313-0.819-0.727-1.606-0.973-2.443c-0.279-0.95,0.404-1.644,1.379-1.506
		c2.268,0.319,3.59,1.595,3.969,3.851c0.111,0.668,0.191,1.343,0.26,2.017c0.099,0.978,0.729,1.514,1.6,1.403
		c0.93-0.116,0.706-0.947,0.63-1.631c-0.135-1.222-0.295-2.448-0.276-3.67c0.006-0.4,0.529-0.795,0.817-1.19
		c0.354,0.461,0.93,0.885,1.015,1.392c0.164,0.973,0.049,1.991,0.05,2.991c0,1.159-0.033,2.32,0.01,3.479
		c0.034,0.912-0.202,1.175-1.183,0.938c-3.178-0.762-6.365-1.511-9.582-2.078c-3.276-0.577-6.582-0.575-10.077,0.251
		c1.642,2.465,1.685,4.758-0.662,6.711c-1.041,0.866-2.201,1.065-3.715,0.312c0.692-2.141,1.395-4.309,2.222-6.863
		c-1.809,0.514-3.424,0.973-5.039,1.432c-0.067-0.115-0.136-0.231-0.205-0.349c0.382-0.34,0.73-0.729,1.15-1.012
		c2.465-1.653,5.324-2.067,8.159-2.556c0.981-0.17,1.956-0.388,2.93-0.601c0.729-0.159,0.99-0.591,0.743-1.324
		c-0.204-0.604-0.419-1.213-0.54-1.838c-0.182-0.944,0.327-1.386,1.227-1.075c1.182,0.407,2.1,0.949,2.17,2.481
		C16.245,129.076,18.187,130.187,20.673,129.841z"/>
</g>
<g id="Layer_5">
	<path fill="#292929" stroke="#020202" stroke-width="0.5" stroke-miterlimit="10" d="M111.246,129.744c0,1.104-0.896,2-2,2H34.014
		c-1.104,0-2-0.896-2-2V74.417c0-1.104,0.896-2,2-2h75.232c1.104,0,2,0.896,2,2V129.744z"/>
</g>
<g id="Layer_7">
	<g>
		<path fill="#FFFFFF" stroke="#FCFCFC" stroke-miterlimit="10" d="M52.693,83.106c0,0.619-0.121,1.143-0.361,1.566
			c-0.241,0.424-0.567,0.768-0.978,1.027c-0.409,0.26-0.882,0.449-1.417,0.57c-0.535,0.119-1.092,0.18-1.669,0.18h-1.339v4.005
			h-2.693v-10.62h4.096c0.608,0,1.179,0.058,1.709,0.173c0.529,0.115,0.992,0.3,1.386,0.556c0.394,0.254,0.703,0.59,0.929,1.004
			C52.58,81.983,52.693,82.496,52.693,83.106z M50,83.121c0-0.25-0.052-0.455-0.157-0.615c-0.105-0.159-0.247-0.285-0.425-0.375
			c-0.18-0.09-0.381-0.149-0.606-0.18s-0.459-0.045-0.701-0.045h-1.182v2.505h1.134c0.252,0,0.493-0.02,0.726-0.061
			c0.229-0.039,0.438-0.109,0.622-0.211c0.184-0.1,0.327-0.231,0.433-0.396S50,83.371,50,83.121z"/>
		<path fill="#FFFFFF" stroke="#FCFCFC" stroke-miterlimit="10" d="M63.427,88.198c-0.226,0.525-0.549,0.976-0.969,1.351
			s-0.927,0.667-1.521,0.877c-0.593,0.21-1.252,0.315-1.977,0.315c-0.735,0-1.396-0.105-1.984-0.315s-1.087-0.502-1.496-0.877
			c-0.41-0.375-0.725-0.825-0.944-1.351c-0.221-0.524-0.331-1.107-0.331-1.747v-6.615h2.677v6.405c0,0.29,0.04,0.564,0.118,0.824
			c0.079,0.261,0.2,0.492,0.361,0.697c0.162,0.205,0.379,0.367,0.646,0.487s0.59,0.18,0.968,0.18s0.701-0.06,0.969-0.18
			c0.269-0.12,0.486-0.282,0.654-0.487s0.289-0.438,0.362-0.697c0.073-0.261,0.109-0.534,0.109-0.824v-6.405h2.693v6.615
			C63.765,87.09,63.652,87.673,63.427,88.198z"/>
		<path fill="#FFFFFF" stroke="#FCFCFC" stroke-miterlimit="10" d="M74.632,87.366c0,0.58-0.121,1.066-0.362,1.462
			c-0.242,0.396-0.562,0.713-0.961,0.953c-0.398,0.239-0.853,0.411-1.361,0.518c-0.51,0.104-1.031,0.157-1.567,0.157h-4.441v-10.62
			h4.441c0.43,0,0.872,0.043,1.323,0.128s0.86,0.229,1.229,0.436c0.368,0.205,0.667,0.481,0.898,0.832
			c0.23,0.351,0.347,0.795,0.347,1.336c0,0.59-0.168,1.076-0.504,1.461c-0.336,0.387-0.777,0.664-1.323,0.834v0.029
			c0.315,0.051,0.611,0.143,0.891,0.277c0.277,0.135,0.52,0.307,0.725,0.518s0.368,0.455,0.488,0.734
			C74.572,86.701,74.632,87.017,74.632,87.366z M71.577,82.911c0-0.36-0.146-0.623-0.434-0.787
			c-0.289-0.165-0.716-0.248-1.284-0.248h-1.322v2.189h1.448c0.505,0,0.896-0.098,1.175-0.293
			C71.438,83.578,71.577,83.291,71.577,82.911z M71.939,87.125c0-0.438-0.173-0.745-0.52-0.915s-0.81-0.255-1.386-0.255h-1.496v2.43
			h1.512c0.209,0,0.427-0.017,0.653-0.052c0.226-0.035,0.431-0.098,0.613-0.188c0.185-0.092,0.333-0.219,0.449-0.384
			C71.881,87.599,71.939,87.385,71.939,87.125z"/>
		<path fill="#FFFFFF" stroke="#FCFCFC" stroke-miterlimit="10" d="M76.412,90.456v-10.62h2.709v8.385h4.315v2.235H76.412z"/>
		<path fill="#FFFFFF" stroke="#FCFCFC" stroke-miterlimit="10" d="M84.697,90.456v-10.62h2.71v10.62H84.697z"/>
		<path fill="#FFFFFF" stroke="#FCFCFC" stroke-miterlimit="10" d="M97.69,90.269c-0.724,0.314-1.56,0.473-2.504,0.473
			c-0.86,0-1.657-0.135-2.386-0.405c-0.73-0.271-1.363-0.651-1.898-1.147c-0.534-0.494-0.955-1.088-1.26-1.776
			c-0.305-0.69-0.457-1.45-0.457-2.28c0-0.85,0.154-1.62,0.465-2.31c0.311-0.69,0.737-1.277,1.283-1.763
			c0.547-0.485,1.188-0.857,1.922-1.117c0.734-0.261,1.527-0.392,2.379-0.392c0.787,0,1.562,0.133,2.322,0.397
			c0.762,0.266,1.379,0.652,1.852,1.162l-1.827,1.74c-0.252-0.33-0.582-0.574-0.992-0.734c-0.409-0.16-0.829-0.24-1.26-0.24
			c-0.474,0-0.906,0.083-1.3,0.248c-0.395,0.164-0.731,0.393-1.017,0.682c-0.283,0.291-0.504,0.633-0.661,1.028
			c-0.158,0.396-0.235,0.827-0.235,1.297c0,0.479,0.077,0.92,0.235,1.32c0.157,0.399,0.375,0.741,0.653,1.026
			s0.612,0.508,1.001,0.668c0.388,0.159,0.812,0.239,1.274,0.239c0.535,0,1.003-0.1,1.401-0.3c0.399-0.2,0.72-0.46,0.961-0.78
			l1.874,1.681C99.023,89.526,98.415,89.953,97.69,90.269z"/>
		<path fill="#FFFFFF" stroke="#FCFCFC" stroke-miterlimit="10" d="M61.332,103.101c0,0.84-0.152,1.607-0.457,2.303
			c-0.306,0.695-0.728,1.289-1.269,1.785c-0.541,0.494-1.184,0.877-1.93,1.146c-0.746,0.271-1.554,0.405-2.425,0.405
			c-0.872,0-1.677-0.136-2.417-0.405c-0.741-0.27-1.381-0.652-1.922-1.146c-0.541-0.496-0.963-1.09-1.269-1.785
			c-0.305-0.694-0.457-1.463-0.457-2.303c0-0.851,0.152-1.617,0.457-2.303s0.728-1.268,1.269-1.748
			c0.541-0.479,1.181-0.85,1.922-1.109c0.74-0.261,1.546-0.391,2.417-0.391s1.68,0.13,2.425,0.391
			c0.746,0.261,1.389,0.631,1.93,1.109c0.541,0.48,0.963,1.062,1.269,1.748C61.18,101.483,61.332,102.25,61.332,103.101z
			 M58.45,103.101c0-0.459-0.079-0.891-0.236-1.289c-0.158-0.4-0.375-0.744-0.654-1.028c-0.277-0.284-0.614-0.511-1.008-0.675
			c-0.394-0.166-0.827-0.248-1.299-0.248c-0.474,0-0.903,0.082-1.292,0.248c-0.39,0.164-0.726,0.391-1.008,0.675
			c-0.283,0.284-0.501,0.628-0.653,1.028c-0.152,0.398-0.229,0.83-0.229,1.289c0,0.479,0.079,0.922,0.236,1.327
			s0.375,0.753,0.654,1.042c0.277,0.29,0.61,0.519,1,0.684c0.388,0.164,0.818,0.248,1.292,0.248c0.472,0,0.903-0.084,1.292-0.248
			c0.388-0.165,0.725-0.394,1.008-0.684c0.284-0.289,0.504-0.637,0.662-1.042C58.371,104.022,58.45,103.581,58.45,103.101z"/>
		<path fill="#FFFFFF" stroke="#FCFCFC" stroke-miterlimit="10" d="M71.569,101.106c0,0.619-0.12,1.143-0.361,1.566
			s-0.567,0.768-0.978,1.027c-0.409,0.26-0.882,0.449-1.417,0.57c-0.535,0.119-1.092,0.18-1.669,0.18h-1.339v4.005h-2.693v-10.62
			h4.096c0.608,0,1.179,0.059,1.709,0.173c0.529,0.115,0.992,0.3,1.386,0.556c0.394,0.254,0.703,0.59,0.929,1.004
			C71.457,99.983,71.569,100.496,71.569,101.106z M68.876,101.121c0-0.25-0.052-0.455-0.157-0.615
			c-0.104-0.159-0.247-0.285-0.425-0.375c-0.179-0.09-0.381-0.149-0.606-0.18s-0.459-0.045-0.701-0.045h-1.182v2.505h1.134
			c0.252,0,0.493-0.02,0.726-0.061c0.229-0.039,0.438-0.109,0.622-0.211c0.184-0.1,0.328-0.231,0.433-0.396
			C68.824,101.578,68.876,101.371,68.876,101.121z"/>
		<path fill="#FFFFFF" stroke="#FCFCFC" stroke-miterlimit="10" d="M73.192,108.456v-10.62h7.497v2.16h-4.897v2.01h4.63v2.056h-4.63
			v2.205h5.182v2.189H73.192z"/>
		<path fill="#FFFFFF" stroke="#FCFCFC" stroke-miterlimit="10" d="M89.839,108.456l-4.488-6.945h-0.048l0.063,6.945h-2.615v-10.62
			h3.072l4.473,6.931h0.047l-0.062-6.931h2.613v10.62H89.839z"/>
		<path fill="#FFFFFF" stroke="#FCFCFC" stroke-miterlimit="10" d="M53.26,118.595c-0.231-0.279-0.533-0.502-0.905-0.667
			c-0.373-0.165-0.731-0.247-1.079-0.247c-0.179,0-0.359,0.016-0.543,0.045s-0.349,0.088-0.496,0.172
			c-0.146,0.086-0.271,0.195-0.369,0.33c-0.1,0.136-0.149,0.309-0.149,0.519c0,0.18,0.039,0.33,0.118,0.45
			c0.079,0.119,0.193,0.225,0.346,0.313s0.333,0.173,0.543,0.248s0.446,0.152,0.709,0.232c0.378,0.12,0.771,0.253,1.182,0.396
			c0.409,0.145,0.781,0.337,1.117,0.577s0.614,0.538,0.835,0.893c0.221,0.355,0.331,0.799,0.331,1.328
			c0,0.609-0.117,1.138-0.354,1.582c-0.236,0.445-0.554,0.812-0.953,1.104c-0.399,0.29-0.856,0.505-1.37,0.645
			c-0.515,0.142-1.045,0.211-1.591,0.211c-0.798,0-1.57-0.133-2.315-0.397c-0.746-0.265-1.364-0.642-1.857-1.132l1.764-1.711
			c0.272,0.32,0.632,0.588,1.079,0.803c0.446,0.216,0.89,0.322,1.331,0.322c0.199,0,0.394-0.021,0.583-0.061
			c0.188-0.04,0.354-0.104,0.496-0.193c0.142-0.092,0.254-0.211,0.339-0.36c0.084-0.15,0.126-0.33,0.126-0.54
			c0-0.2-0.053-0.37-0.158-0.51c-0.104-0.141-0.254-0.269-0.449-0.383c-0.194-0.115-0.436-0.221-0.725-0.314
			c-0.289-0.096-0.617-0.198-0.984-0.309c-0.356-0.109-0.706-0.239-1.047-0.391c-0.341-0.148-0.646-0.342-0.914-0.576
			c-0.268-0.235-0.482-0.521-0.646-0.855s-0.244-0.742-0.244-1.223c0-0.591,0.126-1.096,0.378-1.516s0.583-0.765,0.992-1.035
			c0.41-0.27,0.872-0.467,1.386-0.592s1.034-0.188,1.56-0.188c0.63,0,1.272,0.108,1.929,0.33c0.656,0.22,1.23,0.545,1.725,0.975
			L53.26,118.595z"/>
		<path fill="#FFFFFF" stroke="#FCFCFC" stroke-miterlimit="10" d="M65.135,119.106c0,0.619-0.121,1.143-0.362,1.566
			c-0.24,0.424-0.566,0.768-0.977,1.027c-0.409,0.26-0.882,0.449-1.417,0.57c-0.535,0.119-1.092,0.18-1.669,0.18h-1.339v4.005
			h-2.693v-10.62h4.095c0.609,0,1.18,0.059,1.709,0.173c0.53,0.115,0.992,0.3,1.387,0.556c0.394,0.254,0.702,0.59,0.929,1.004
			C65.022,117.983,65.135,118.496,65.135,119.106z M62.442,119.121c0-0.25-0.052-0.455-0.156-0.615
			c-0.105-0.159-0.247-0.285-0.426-0.375s-0.381-0.149-0.605-0.18c-0.227-0.03-0.459-0.045-0.701-0.045h-1.182v2.505h1.134
			c0.252,0,0.493-0.02,0.725-0.061c0.23-0.039,0.438-0.109,0.622-0.211c0.185-0.1,0.328-0.231,0.434-0.396
			C62.39,119.578,62.442,119.371,62.442,119.121z"/>
		<path fill="#FFFFFF" stroke="#FCFCFC" stroke-miterlimit="10" d="M73.373,126.456l-0.867-2.085H68.19l-0.818,2.085h-2.931
			l4.679-10.62h2.614l4.631,10.62H73.373z M70.38,118.67l-1.417,3.646h2.803L70.38,118.67z"/>
		<path fill="#FFFFFF" stroke="#FCFCFC" stroke-miterlimit="10" d="M84.996,126.269c-0.726,0.314-1.56,0.473-2.504,0.473
			c-0.861,0-1.657-0.135-2.387-0.405s-1.361-0.651-1.897-1.147c-0.536-0.494-0.956-1.088-1.26-1.776
			c-0.306-0.69-0.457-1.45-0.457-2.28c0-0.85,0.154-1.62,0.465-2.31c0.31-0.69,0.736-1.277,1.284-1.763
			c0.546-0.485,1.186-0.857,1.921-1.117c0.734-0.262,1.527-0.392,2.378-0.392c0.787,0,1.562,0.134,2.322,0.397
			c0.762,0.266,1.379,0.652,1.852,1.162l-1.826,1.74c-0.252-0.33-0.584-0.574-0.992-0.734c-0.41-0.16-0.83-0.24-1.261-0.24
			c-0.473,0-0.906,0.083-1.299,0.248c-0.395,0.164-0.732,0.393-1.017,0.682c-0.282,0.291-0.504,0.633-0.66,1.028
			c-0.158,0.396-0.236,0.827-0.236,1.297c0,0.479,0.079,0.92,0.236,1.32c0.156,0.399,0.375,0.741,0.652,1.026
			c0.278,0.285,0.612,0.508,1,0.668c0.389,0.16,0.813,0.239,1.275,0.239c0.536,0,1.004-0.1,1.401-0.3
			c0.398-0.2,0.72-0.46,0.962-0.779l1.874,1.68C86.33,125.526,85.72,125.953,84.996,126.269z"/>
		<path fill="#FFFFFF" stroke="#FCFCFC" stroke-miterlimit="10" d="M87.973,126.456v-10.62h7.497v2.16h-4.898v2.01h4.632v2.056
			h-4.632v2.205h5.183v2.189H87.973z"/>
	</g>
</g>
</svg>
